<?xml version="1.0" encoding="UTF-8"?>
<!DOCTYPE svg PUBLIC "-//W3C//DTD SVG 1.1//EN" "http://www.w3.org/Graphics/SVG/1.1/DTD/svg11.dtd">
<svg xmlns="http://www.w3.org/2000/svg" version="1.1" width="412px" height="124px" style="shape-rendering:geometricPrecision; text-rendering:geometricPrecision; image-rendering:optimizeQuality; fill-rule:evenodd; clip-rule:evenodd" xmlns:xlink="http://www.w3.org/1999/xlink">
<g><path style="opacity:0.014" fill="#ebf2f2" d="M 59.5,12.5 C 60.1667,12.5 60.8333,12.5 61.5,12.5C 61.1179,15.3537 61.1179,18.3537 61.5,21.5C 60.3428,18.7273 59.6761,15.7273 59.5,12.5 Z"/></g>
<g><path style="opacity:0.072" fill="#eff2f3" d="M 45.5,21.5 C 35.0604,21.0315 24.7271,21.6981 14.5,23.5C 15.842,22.207 17.5087,21.3736 19.5,21C 28.3433,20.1764 37.0099,20.3431 45.5,21.5 Z"/></g>
<g><path style="opacity:0.062" fill="#f3f5f5" d="M 63.5,19.5 C 76.265,20.1488 88.9317,20.8155 101.5,21.5C 91.8333,21.5 82.1667,21.5 72.5,21.5C 68.9878,22.0545 65.9878,21.3878 63.5,19.5 Z"/></g>
<g><path style="opacity:0.945" fill="#5db5bb" d="M 50.5,24.5 C 41.2197,23.5534 31.8864,23.2201 22.5,23.5C 21.391,23.5569 20.391,23.8902 19.5,24.5C 17.4471,24.4021 15.7804,25.0687 14.5,26.5C 13.375,25.6522 13.375,24.6522 14.5,23.5C 24.7271,21.6981 35.0604,21.0315 45.5,21.5C 48.1831,19.9061 50.5165,20.2395 52.5,22.5C 52.1445,23.5223 51.4778,24.189 50.5,24.5 Z"/></g>
<g><path style="opacity:0.944" fill="#50afb9" d="M 61.5,12.5 C 62.5,12.5 63.5,12.5 64.5,12.5C 64.3259,14.861 63.9926,17.1944 63.5,19.5C 65.9878,21.3878 68.9878,22.0545 72.5,21.5C 82.8333,22.1667 93.1667,22.8333 103.5,23.5C 89.5,23.5 75.5,23.5 61.5,23.5C 61.5,22.8333 61.5,22.1667 61.5,21.5C 61.1179,18.3537 61.1179,15.3537 61.5,12.5 Z"/></g>
<g><path style="opacity:0.044" fill="#f4f6f6" d="M 61.5,23.5 C 75.5,23.5 89.5,23.5 103.5,23.5C 105.929,24.5512 108.262,25.8845 110.5,27.5C 110.672,28.4916 110.338,29.1583 109.5,29.5C 107.232,27.535 104.565,26.3683 101.5,26C 86.6609,25.8313 71.9943,25.3313 57.5,24.5C 58.8736,24.2079 60.2069,23.8746 61.5,23.5 Z"/></g>
<g><path style="opacity:0.059" fill="#ebf0f0" d="M 22.5,23.5 C 31.8864,23.2201 41.2197,23.5534 50.5,24.5C 50.5,24.8333 50.5,25.1667 50.5,25.5C 41.5163,25.418 32.683,25.418 24,25.5C 23.3987,26.9653 23.8987,27.9653 25.5,28.5C 33.4441,27.5315 41.4441,27.1981 49.5,27.5C 49.5,28.5 49.5,29.5 49.5,30.5C 45.8173,28.5188 41.8173,28.0188 37.5,29C 38.2871,30.313 37.9538,31.4797 36.5,32.5C 36.5,31.1667 36.5,29.8333 36.5,28.5C 30.4209,28.9532 24.4209,29.7865 18.5,31C 14.345,32.8107 12.345,35.9774 12.5,40.5C 11.8333,40.8333 11.1667,41.1667 10.5,41.5C 9.83333,41.5 9.16667,41.5 8.5,41.5C 8.5,40.8333 8.83333,40.5 9.5,40.5C 10.8363,35.5213 13.503,31.188 17.5,27.5C 16.675,26.6143 15.675,26.281 14.5,26.5C 15.7804,25.0687 17.4471,24.4021 19.5,24.5C 19.5,25.5 19.5,26.5 19.5,27.5C 20.5,27.5 21.5,27.5 22.5,27.5C 22.5,26.1667 22.5,24.8333 22.5,23.5 Z"/></g>
<g><path style="opacity:0.984" fill="#32aebd" d="M 50.5,25.5 C 50.6716,26.4916 50.3382,27.1583 49.5,27.5C 41.4441,27.1981 33.4441,27.5315 25.5,28.5C 23.8987,27.9653 23.3987,26.9653 24,25.5C 32.683,25.418 41.5163,25.418 50.5,25.5 Z"/></g>
<g><path style="opacity:0.967" fill="#59b6c0" d="M 59.5,12.5 C 58.8826,12.6107 58.3826,12.944 58,13.5C 57.5014,17.1516 57.3347,20.8183 57.5,24.5C 71.9943,25.3313 86.6609,25.8313 101.5,26C 104.565,26.3683 107.232,27.535 109.5,29.5C 110.925,30.922 111.925,32.5887 112.5,34.5C 112.167,34.5 111.833,34.5 111.5,34.5C 111.5,33.8333 111.167,33.5 110.5,33.5C 108.929,30.7687 106.595,28.9354 103.5,28C 87.426,27.8182 71.426,27.3182 55.5,26.5C 54.3852,21.2501 54.2185,15.9167 55,10.5C 57.2885,8.1868 58.7885,8.85347 59.5,12.5 Z"/></g>
<g><path style="opacity:1" fill="#aed4d5" d="M 14.5,23.5 C 13.375,24.6522 13.375,25.6522 14.5,26.5C 11.4503,28.5491 9.11698,31.2157 7.5,34.5C 7.44001,33.9569 7.10667,33.6236 6.5,33.5C 5.43795,35.0217 4.77128,36.6883 4.5,38.5C 3.73849,35.8483 4.23849,33.1817 6,30.5C 7.80478,26.8571 10.6381,24.5237 14.5,23.5 Z"/></g>
<g><path style="opacity:0.089" fill="#edf0f1" d="M 55.5,26.5 C 71.426,27.3182 87.426,27.8182 103.5,28C 106.595,28.9354 108.929,30.7687 110.5,33.5C 109.833,33.8333 109.167,34.1667 108.5,34.5C 107.106,32.2918 105.106,30.7918 102.5,30C 85.1371,30.1556 68.1371,29.3223 51.5,27.5C 53.099,27.7678 54.4324,27.4345 55.5,26.5 Z"/></g>
<g><path style="opacity:1" fill="#52a7b6" d="M 50.5,25.5 C 51.3382,25.8417 51.6716,26.5084 51.5,27.5C 68.1371,29.3223 85.1371,30.1556 102.5,30C 105.106,30.7918 107.106,32.2918 108.5,34.5C 111.823,40.7315 110.823,46.2315 105.5,51C 94.7559,52.1204 84.0893,52.9537 73.5,53.5C 72.6618,53.1583 72.3284,52.4916 72.5,51.5C 79.5,51.5 86.5,51.5 93.5,51.5C 93.8333,51.5 94.1667,51.5 94.5,51.5C 102.779,52.8649 107.779,49.5316 109.5,41.5C 109.5,41.1667 109.5,40.8333 109.5,40.5C 108.921,36.6393 106.921,33.9726 103.5,32.5C 92.6794,31.5054 81.6794,31.1721 70.5,31.5C 63.3553,32.4227 56.3553,32.0893 49.5,30.5C 49.5,29.5 49.5,28.5 49.5,27.5C 50.3382,27.1583 50.6716,26.4916 50.5,25.5 Z"/></g>
<g><path style="opacity:0.651" fill="#86bec4" d="M 72.5,21.5 C 82.1667,21.5 91.8333,21.5 101.5,21.5C 110.619,22.621 116.286,27.621 118.5,36.5C 117.833,36.1667 117.167,35.8333 116.5,35.5C 114.987,32.4756 112.987,29.8089 110.5,27.5C 108.262,25.8845 105.929,24.5512 103.5,23.5C 93.1667,22.8333 82.8333,22.1667 72.5,21.5 Z"/></g>
<g><path style="opacity:0.093" fill="#eff2f2" d="M 70.5,31.5 C 81.6794,31.1721 92.6794,31.5054 103.5,32.5C 100.302,31.9644 97.6353,32.631 95.5,34.5C 94.609,33.8902 93.609,33.5569 92.5,33.5C 85.1667,32.8333 77.8333,32.1667 70.5,31.5 Z"/></g>
<g><path style="opacity:0.12" fill="#e9edee" d="M 22.5,31.5 C 26.7016,31.1832 30.7016,31.5166 34.5,32.5C 34.9121,33.9672 38.2455,33.9672 44.5,32.5C 45.5223,32.8555 46.189,33.5222 46.5,34.5C 37.7502,34.0901 29.0836,34.5901 20.5,36C 18.2884,39.3209 17.6217,42.8209 18.5,46.5C 17.8333,46.5 17.1667,46.5 16.5,46.5C 16.1667,45.1667 15.8333,45.1667 15.5,46.5C 14.6618,46.1583 14.3284,45.4916 14.5,44.5C 15.7317,40.7051 17.7317,37.2051 20.5,34C 22.8333,33.6667 25.1667,33.3333 27.5,33C 25.6183,32.8019 23.9516,32.3019 22.5,31.5 Z"/></g>
<g><path style="opacity:0.483" fill="#b1dcdc" d="M 162.5,35.5 C 162.5,35.8333 162.5,36.1667 162.5,36.5C 154.167,36.5 145.833,36.5 137.5,36.5C 137.5,38.1667 137.5,39.8333 137.5,41.5C 140.5,41.5 143.5,41.5 146.5,41.5C 146.5,49.5 146.5,57.5 146.5,65.5C 145.351,65.2089 144.684,64.3756 144.5,63C 145.925,56.124 145.759,49.2907 144,42.5C 141.557,43.2853 139.057,43.1186 136.5,42C 134.982,39.0753 135.649,36.742 138.5,35C 146.579,34.2004 154.579,34.3671 162.5,35.5 Z"/></g>
<g><path style="opacity:0.486" fill="#b5dfdd" d="M 219.5,38.5 C 218.848,37.2749 217.681,36.6083 216,36.5C 214.833,36.6667 213.667,36.8333 212.5,37C 210.963,38.7073 209.296,40.2073 207.5,41.5C 210.493,34.6557 215.16,32.989 221.5,36.5C 221.145,37.5223 220.478,38.189 219.5,38.5 Z"/></g>
<g><path style="opacity:0.49" fill="#afdedb" d="M 364.5,38.5 C 362.2,36.7982 359.533,36.1315 356.5,36.5C 359.526,33.7713 362.526,33.9379 365.5,37C 364.944,37.3826 364.611,37.8826 364.5,38.5 Z"/></g>
<g><path style="opacity:0.471" fill="#b8dedd" d="M 404.5,39.5 C 404.715,37.8212 404.048,36.8212 402.5,36.5C 400.708,36.366 399.042,36.6993 397.5,37.5C 397.577,36.2502 398.244,35.4169 399.5,35C 401.5,34.3333 403.5,34.3333 405.5,35C 406.553,36.7493 406.22,38.2493 404.5,39.5 Z"/></g>
<g><path style="opacity:0.061" fill="#eff4f5" d="M 85.5,36.5 C 88.8806,36.4595 92.2139,36.7929 95.5,37.5C 93.1544,37.984 90.8211,38.3173 88.5,38.5C 87.5,38.5 86.5,38.5 85.5,38.5C 85.5,37.8333 85.5,37.1667 85.5,36.5 Z"/></g>
<g><path style="opacity:0.784" fill="#80aeb7" d="M 92.5,33.5 C 93.609,33.5569 94.609,33.8902 95.5,34.5C 96.8333,35.5 96.8333,36.5 95.5,37.5C 92.2139,36.7929 88.8806,36.4595 85.5,36.5C 74.5809,36.3243 63.5809,36.6576 52.5,37.5C 51.5672,41.4295 51.2338,45.4295 51.5,49.5C 51.573,51.0269 50.9063,52.0269 49.5,52.5C 49.5,52.1667 49.5,51.8333 49.5,51.5C 49.2143,45.7414 49.5476,40.0748 50.5,34.5C 64.3234,33.5042 78.3234,33.1709 92.5,33.5 Z"/></g>
<g><path style="opacity:1" fill="#21f5f2" d="M 162.5,36.5 C 162.5,38.5 162.5,40.5 162.5,42.5C 160.167,42.5 157.833,42.5 155.5,42.5C 153.535,49.7605 152.868,57.4271 153.5,65.5C 151.167,65.5 148.833,65.5 146.5,65.5C 146.5,57.5 146.5,49.5 146.5,41.5C 143.5,41.5 140.5,41.5 137.5,41.5C 137.5,39.8333 137.5,38.1667 137.5,36.5C 145.833,36.5 154.167,36.5 162.5,36.5 Z"/></g>
<g><path style="opacity:1" fill="#10f9f6" d="M 186.5,53.5 C 182.167,53.5 177.833,53.5 173.5,53.5C 172.731,55.6674 171.731,57.834 170.5,60C 171.833,60.3333 173.167,60.6667 174.5,61C 175.451,61.7175 175.617,62.5509 175,63.5C 172.281,64.4438 169.448,64.7771 166.5,64.5C 166.5,55.1667 166.5,45.8333 166.5,36.5C 173.833,36.5 181.167,36.5 188.5,36.5C 188.5,38.1667 188.5,39.8333 188.5,41.5C 183.167,41.5 177.833,41.5 172.5,41.5C 172.5,43.8333 172.5,46.1667 172.5,48.5C 177.167,48.5 181.833,48.5 186.5,48.5C 186.5,50.1667 186.5,51.8333 186.5,53.5 Z"/></g>
<g><path style="opacity:0.041" fill="#eef4f4" d="M 201.5,36.5 C 202.167,39.5 202.833,42.5 203.5,45.5C 203.167,46.1667 202.833,46.8333 202.5,47.5C 201.518,44.0381 201.185,40.3714 201.5,36.5 Z"/></g>
<g><path style="opacity:1" fill="#14f8f4" d="M 258.5,36.5 C 260.833,36.5 263.167,36.5 265.5,36.5C 265.5,46.1667 265.5,55.8333 265.5,65.5C 263.167,65.5 260.833,65.5 258.5,65.5C 258.5,55.8333 258.5,46.1667 258.5,36.5 Z"/></g>
<g><path style="opacity:1" fill="#33f7f3" d="M 279.5,36.5 C 285.087,35.637 289.92,36.9703 294,40.5C 294.333,40.1667 294.667,39.8333 295,39.5C 295.483,40.448 295.649,41.448 295.5,42.5C 293.876,42.3601 292.71,43.0267 292,44.5C 290.89,42.9632 289.39,42.2965 287.5,42.5C 285.316,41.7337 282.982,41.0671 280.5,40.5C 278.481,41.1329 278.147,42.1329 279.5,43.5C 277.442,42.0669 275.108,41.4003 272.5,41.5C 273.833,38.6472 276.166,36.9805 279.5,36.5 Z"/></g>
<g><path style="opacity:1" fill="#50efed" d="M 324.5,50.5 C 323.778,50.9175 323.278,51.5842 323,52.5C 322.061,49.8791 321.228,47.2125 320.5,44.5C 319.833,43.8333 319.167,43.1667 318.5,42.5C 318.089,43.2624 317.923,44.2624 318,45.5C 317.31,44.2617 316.81,44.2617 316.5,45.5C 315.504,45.5858 314.671,45.2524 314,44.5C 313.536,45.0944 313.369,45.7611 313.5,46.5C 313.34,48.153 312.674,49.4863 311.5,50.5C 310.566,51.5676 310.232,52.901 310.5,54.5C 313.388,55.0102 315.721,54.3435 317.5,52.5C 318.404,53.209 318.737,54.209 318.5,55.5C 316.5,55.5 314.5,55.5 312.5,55.5C 311.5,55.5 310.5,55.5 309.5,55.5C 309.342,52.6391 310.008,49.9724 311.5,47.5C 309.775,45.5042 307.942,45.8376 306,48.5C 304.597,51.7088 303.597,55.0422 303,58.5C 302.617,57.944 302.117,57.6107 301.5,57.5C 301.5,56.8333 301.5,56.1667 301.5,55.5C 303.711,49.4067 306.211,43.4067 309,37.5C 311.931,33.8822 315.265,33.5489 319,36.5C 321.134,41.0719 322.967,45.7385 324.5,50.5 Z M 313.5,46.5 C 315.086,48.0808 316.086,50.0808 316.5,52.5C 314.955,53.4519 313.288,53.7852 311.5,53.5C 311.5,52.5 311.5,51.5 311.5,50.5C 312.674,49.4863 313.34,48.153 313.5,46.5 Z"/></g>
<g><path style="opacity:0.784" fill="#7fb5c1" d="M 85.5,38.5 C 86.5,38.5 87.5,38.5 88.5,38.5C 89.2341,39.7079 89.5674,41.0413 89.5,42.5C 79.0846,42.8083 68.7513,42.475 58.5,41.5C 56.744,42.5521 56.0773,44.2188 56.5,46.5C 70.5,46.5 84.5,46.5 98.5,46.5C 84.3431,47.4959 70.0097,47.8293 55.5,47.5C 55.5,47.1667 55.5,46.8333 55.5,46.5C 55.5,44.8333 55.5,43.1667 55.5,41.5C 56.2297,39.955 57.563,39.1216 59.5,39C 68.1603,38.5002 76.8269,38.3336 85.5,38.5 Z"/></g>
<g><path style="opacity:1" fill="#4cf1ee" d="M 219.5,38.5 C 217.157,41.8399 214.824,45.1733 212.5,48.5C 214.254,52.3439 216.254,56.0106 218.5,59.5C 219.5,61.5 220.5,63.5 221.5,65.5C 221.565,65.9382 221.399,66.2716 221,66.5C 218.26,65.7178 215.426,65.2178 212.5,65C 210.536,63.549 209.203,61.7157 208.5,59.5C 208.443,58.391 208.11,57.391 207.5,56.5C 208.058,54.4066 209.391,52.9066 211.5,52C 210.328,51.5814 209.328,50.9147 208.5,50C 209.38,48.6439 209.714,47.1439 209.5,45.5C 210.675,45.719 211.675,45.3857 212.5,44.5C 211.009,43.7564 209.509,43.0897 208,42.5C 206.574,44.7658 204.74,46.4324 202.5,47.5C 202.833,46.8333 203.167,46.1667 203.5,45.5C 204.5,43.8333 205.833,42.5 207.5,41.5C 209.296,40.2073 210.963,38.7073 212.5,37C 213.667,36.8333 214.833,36.6667 216,36.5C 217.681,36.6083 218.848,37.2749 219.5,38.5 Z"/></g>
<g><path style="opacity:0.098" fill="#eef3f3" d="M 162.5,35.5 C 163.222,35.9175 163.722,36.5842 164,37.5C 164.383,36.944 164.883,36.6107 165.5,36.5C 165.5,40.1667 165.5,43.8333 165.5,47.5C 164.683,45.0314 164.183,42.3647 164,39.5C 163.768,40.7375 163.268,41.7375 162.5,42.5C 162.5,40.5 162.5,38.5 162.5,36.5C 162.5,36.1667 162.5,35.8333 162.5,35.5 Z"/></g>
<g><path style="opacity:1" fill="#7ee8e8" d="M 287.5,42.5 C 285.265,42.2053 283.265,42.5386 281.5,43.5C 279.022,46.3291 278.022,49.6625 278.5,53.5C 277.01,50.0208 277.343,46.6875 279.5,43.5C 278.147,42.1329 278.481,41.1329 280.5,40.5C 282.982,41.0671 285.316,41.7337 287.5,42.5 Z"/></g>
<g><path style="opacity:1" fill="#8fe2de" d="M 281.5,43.5 C 283.265,42.5386 285.265,42.2053 287.5,42.5C 289.39,42.2965 290.89,42.9632 292,44.5C 292.71,43.0267 293.876,42.3601 295.5,42.5C 295.649,41.448 295.483,40.448 295,39.5C 294.667,39.8333 294.333,40.1667 294,40.5C 289.92,36.9703 285.087,35.637 279.5,36.5C 281.851,34.7971 284.518,34.2971 287.5,35C 291.554,36.0175 294.887,38.0175 297.5,41C 295.762,45.8946 293.095,46.8946 289.5,44C 286.854,43.5026 284.187,43.3359 281.5,43.5 Z"/></g>
<g><path style="opacity:0.031" fill="#f9f9f9" d="M 3.5,43.5 C 2.42654,42.7494 2.25988,41.7494 3,40.5C 3.48278,41.448 3.64945,42.448 3.5,43.5 Z"/></g>
<g><path style="opacity:0.711" fill="#94cfce" d="M 201.5,36.5 C 199.167,36.5 196.833,36.5 194.5,36.5C 194.5,46.1667 194.5,55.8333 194.5,65.5C 193.235,64.4855 192.569,62.9855 192.5,61C 193.718,53.3137 193.718,45.647 192.5,38C 193.169,36.1525 194.503,34.9858 196.5,34.5C 197.5,35.8333 198.5,35.8333 199.5,34.5C 200.522,34.8555 201.189,35.5222 201.5,36.5 Z"/></g>
<g><path style="opacity:0.174" fill="#d1e4e4" d="M 252.5,65.5 C 252.5,55.8333 252.5,46.1667 252.5,36.5C 250.167,36.5 247.833,36.5 245.5,36.5C 247.417,34.2549 249.75,33.9215 252.5,35.5C 253.191,44.8624 253.858,54.1957 254.5,63.5C 254.145,64.5223 253.478,65.189 252.5,65.5 Z"/></g>
<g><path style="opacity:0.504" fill="#95d4d4" d="M 265.5,65.5 C 265.5,55.8333 265.5,46.1667 265.5,36.5C 263.167,36.5 260.833,36.5 258.5,36.5C 258.5,36.1667 258.5,35.8333 258.5,35.5C 261.104,34.4696 263.771,34.4696 266.5,35.5C 266.827,45.6806 266.494,55.6806 265.5,65.5 Z"/></g>
<g><path style="opacity:1" fill="#43eceb" d="M 356.5,36.5 C 359.533,36.1315 362.2,36.7982 364.5,38.5C 365.033,43.7664 365.033,49.0997 364.5,54.5C 364.5,56.1667 364.5,57.8333 364.5,59.5C 363.514,55.03 363.181,50.3633 363.5,45.5C 361.833,45.5 360.167,45.5 358.5,45.5C 358.12,49.8228 357.786,54.1562 357.5,58.5C 357.529,61.2695 358.195,63.6028 359.5,65.5C 358.5,66.8333 357.5,66.8333 356.5,65.5C 356.5,61.1667 356.5,56.8333 356.5,52.5C 356.5,47.1667 356.5,41.8333 356.5,36.5 Z"/></g>
<g><path style="opacity:1" fill="#18f6f3" d="M 402.5,36.5 C 403.412,37.7382 403.579,39.0715 403,40.5C 402.333,39.1667 401.667,39.1667 401,40.5C 400.383,41.4491 400.549,42.2825 401.5,43C 396.43,49.5726 394.43,57.0726 395.5,65.5C 394.167,65.5 392.833,65.5 391.5,65.5C 390.209,65.7373 389.209,65.404 388.5,64.5C 390.167,64.5 391.833,64.5 393.5,64.5C 393.663,59.453 393.329,54.453 392.5,49.5C 393.525,46.6192 395.025,43.9525 397,41.5C 397.49,40.2068 397.657,38.8734 397.5,37.5C 399.042,36.6993 400.708,36.366 402.5,36.5 Z"/></g>
<g><path style="opacity:0.036" fill="#f9fafa" d="M 55.5,41.5 C 55.5,43.1667 55.5,44.8333 55.5,46.5C 53.8993,47.6428 53.2326,46.9761 53.5,44.5C 53.6399,42.9704 54.3065,41.9704 55.5,41.5 Z"/></g>
<g><path style="opacity:0.114" fill="#e8eeef" d="M 103.5,32.5 C 106.921,33.9726 108.921,36.6393 109.5,40.5C 108.167,40.8333 108.167,41.1667 109.5,41.5C 107.779,49.5316 102.779,52.8649 94.5,51.5C 97.2578,50.2395 100.258,49.4061 103.5,49C 108.724,43.5743 108.724,38.0743 103.5,32.5 Z"/></g>
<g><path style="opacity:0.305" fill="#c6e1e1" d="M 356.5,52.5 C 356.5,56.8333 356.5,61.1667 356.5,65.5C 354.806,65.5541 353.14,65.5541 351.5,65.5C 352.461,63.7354 352.795,61.7354 352.5,59.5C 348.5,59.5 344.5,59.5 340.5,59.5C 340.5,51.8333 340.5,44.1667 340.5,36.5C 338.167,36.5 335.833,36.5 333.5,36.5C 333.5,46.1667 333.5,55.8333 333.5,65.5C 332.5,65.5 331.5,65.5 330.5,65.5C 329.213,62.5939 328.213,59.5939 327.5,56.5C 328.892,58.2726 330.059,60.2726 331,62.5C 331.775,53.4935 332.608,44.4935 333.5,35.5C 336.034,34.2117 338.534,34.2117 341,35.5C 341.5,43.1594 341.666,50.8261 341.5,58.5C 346.099,58.2 350.599,58.5333 355,59.5C 355.186,56.9644 355.686,54.631 356.5,52.5 Z"/></g>
<g><path style="opacity:1" fill="#16f8f4" d="M 351.5,65.5 C 345.5,65.5 339.5,65.5 333.5,65.5C 333.5,55.8333 333.5,46.1667 333.5,36.5C 335.833,36.5 338.167,36.5 340.5,36.5C 340.5,44.1667 340.5,51.8333 340.5,59.5C 344.5,59.5 348.5,59.5 352.5,59.5C 352.795,61.7354 352.461,63.7354 351.5,65.5 Z"/></g>
<g><path style="opacity:0.109" fill="#e9eff1" d="M 50.5,34.5 C 49.5476,40.0748 49.2143,45.7414 49.5,51.5C 48.8333,51.1667 48.1667,50.8333 47.5,50.5C 47.5,45.8333 47.5,41.1667 47.5,36.5C 48.2223,35.4489 49.2223,34.7822 50.5,34.5 Z"/></g>
<g><path style="opacity:0.114" fill="#e6eded" d="M 177.5,42.5 C 176.791,43.404 175.791,43.7373 174.5,43.5C 174.5,44.5 174.5,45.5 174.5,46.5C 179.032,46.1818 183.366,46.5151 187.5,47.5C 182.833,47.5 178.167,47.5 173.5,47.5C 173.5,45.8333 173.5,44.1667 173.5,42.5C 174.833,42.5 176.167,42.5 177.5,42.5 Z"/></g>
<g><path style="opacity:0.17" fill="#dde8e9" d="M 258.5,35.5 C 258.5,35.8333 258.5,36.1667 258.5,36.5C 258.5,46.1667 258.5,55.8333 258.5,65.5C 257.522,65.189 256.855,64.5223 256.5,63.5C 257.142,54.038 257.809,44.7047 258.5,35.5 Z"/></g>
<g><path style="opacity:1" fill="#52f0ec" d="M 397.5,37.5 C 397.657,38.8734 397.49,40.2068 397,41.5C 395.025,43.9525 393.525,46.6192 392.5,49.5C 390.264,48.6109 388.264,47.2776 386.5,45.5C 386.518,48.1843 386.518,50.851 386.5,53.5C 383.441,49.0635 380.608,44.3968 378,39.5C 378.355,34.2015 380.855,33.2015 385.5,36.5C 387.418,40.0039 389.584,43.3372 392,46.5C 393.665,43.3487 395.498,40.3487 397.5,37.5 Z"/></g>
<g><path style="opacity:0.333" fill="#b0dfde" d="M 235.5,40.5 C 237.587,41.5846 238.92,43.2512 239.5,45.5C 237.413,44.4154 236.08,42.7488 235.5,40.5 Z"/></g>
<g><path style="opacity:0.117" fill="#eaeff0" d="M 58.5,41.5 C 57.5876,42.7382 57.4209,44.0715 58,45.5C 69.4637,44.7236 80.9637,44.3903 92.5,44.5C 95.0804,44.7243 97.4138,45.3909 99.5,46.5C 99.1667,46.5 98.8333,46.5 98.5,46.5C 84.5,46.5 70.5,46.5 56.5,46.5C 56.0773,44.2188 56.744,42.5521 58.5,41.5 Z"/></g>
<g><path style="opacity:0.106" fill="#e1e9eb" d="M 110.5,33.5 C 111.167,33.5 111.5,33.8333 111.5,34.5C 115.082,46.3296 110.748,53.3296 98.5,55.5C 95.5,54.1667 92.5,54.1667 89.5,55.5C 88.1667,55.5 86.8333,55.5 85.5,55.5C 84.5,54.1667 83.5,54.1667 82.5,55.5C 81.5,55.5 80.5,55.5 79.5,55.5C 79.0164,58.9509 79.0164,62.2842 79.5,65.5C 77.1474,62.6092 76.8141,59.2759 78.5,55.5C 76.8327,54.3336 75.166,54.3336 73.5,55.5C 73.5,54.8333 73.5,54.1667 73.5,53.5C 84.0893,52.9537 94.7559,52.1204 105.5,51C 110.823,46.2315 111.823,40.7315 108.5,34.5C 109.167,34.1667 109.833,33.8333 110.5,33.5 Z"/></g>
<g><path style="opacity:0.051" fill="#f4f6f7" d="M 3.5,43.5 C 3.83333,43.5 4.16667,43.5 4.5,43.5C 4.83333,45.5 5.16667,47.5 5.5,49.5C 3.92606,47.8984 3.25939,45.8984 3.5,43.5 Z"/></g>
<g><path style="opacity:1" fill="#62a9b9" d="M 36.5,32.5 C 35.8333,32.5 35.1667,32.5 34.5,32.5C 30.7016,31.5166 26.7016,31.1832 22.5,31.5C 16.0496,33.3859 13.383,37.7193 14.5,44.5C 14.3284,45.4916 14.6618,46.1583 15.5,46.5C 15.8333,46.5 16.1667,46.5 16.5,46.5C 16.8333,47.1667 17.1667,47.8333 17.5,48.5C 18.347,49.9663 19.6803,50.7996 21.5,51C 29.8267,51.4997 38.16,51.6664 46.5,51.5C 47.1083,46.0557 46.4417,41.0557 44.5,36.5C 37.4921,36.3337 30.4921,36.5004 23.5,37C 22.5838,37.3742 21.7504,37.8742 21,38.5C 20.8446,40.856 20.8446,43.1893 21,45.5C 20.3292,46.2524 19.4959,46.5858 18.5,46.5C 17.6217,42.8209 18.2884,39.3209 20.5,36C 29.0836,34.5901 37.7502,34.0901 46.5,34.5C 47.3382,34.8417 47.6716,35.5084 47.5,36.5C 47.5,41.1667 47.5,45.8333 47.5,50.5C 47.5,51.1667 47.5,51.8333 47.5,52.5C 38.1607,52.6665 28.8274,52.4998 19.5,52C 14.477,49.7849 12.1437,45.9516 12.5,40.5C 12.345,35.9774 14.345,32.8107 18.5,31C 24.4209,29.7865 30.4209,28.9532 36.5,28.5C 36.5,29.8333 36.5,31.1667 36.5,32.5 Z M 43.5,45.5 C 44.4345,46.5676 44.7678,47.901 44.5,49.5C 43.209,49.7373 42.209,49.404 41.5,48.5C 43.0481,48.1788 43.7148,47.1788 43.5,45.5 Z M 26.5,42.5 C 31.3614,42.0634 36.0281,42.5634 40.5,44C 39.8921,44.8699 39.0588,45.3699 38,45.5C 34.4896,44.6622 30.8229,44.6622 27,45.5C 26.5172,44.552 26.3505,43.552 26.5,42.5 Z M 44.5,36.5 C 44.7678,38.099 44.4345,39.4324 43.5,40.5C 43.5,39.8333 43.1667,39.5 42.5,39.5C 36.5,38.1667 30.5,38.1667 24.5,39.5C 23.8826,39.6107 23.3826,39.944 23,40.5C 22.8333,41.8333 22.6667,43.1667 22.5,44.5C 22.5854,46.3328 23.2521,47.6661 24.5,48.5C 27.8333,48.5 31.1667,48.5 34.5,48.5C 28.9845,49.6514 23.3178,49.6514 17.5,48.5C 17.1667,47.8333 16.8333,47.1667 16.5,46.5C 17.1667,46.5 17.8333,46.5 18.5,46.5C 19.4959,46.5858 20.3292,46.2524 21,45.5C 20.8446,43.1893 20.8446,40.856 21,38.5C 21.7504,37.8742 22.5838,37.3742 23.5,37C 30.4921,36.5004 37.4921,36.3337 44.5,36.5 Z"/></g>
<g><path style="opacity:0.114" fill="#f0f1f2" d="M 24.5,39.5 C 24.5,42.1667 24.5,44.8333 24.5,47.5C 24.5,47.8333 24.5,48.1667 24.5,48.5C 23.2521,47.6661 22.5854,46.3328 22.5,44.5C 22.6667,43.1667 22.8333,41.8333 23,40.5C 23.3826,39.944 23.8826,39.6107 24.5,39.5 Z"/></g>
<g><path style="opacity:0.985" fill="#6fadbd" d="M 42.5,39.5 C 42.5,42.1667 42.5,44.8333 42.5,47.5C 36.5,47.5 30.5,47.5 24.5,47.5C 24.5,44.8333 24.5,42.1667 24.5,39.5C 30.5,38.1667 36.5,38.1667 42.5,39.5 Z M 26.5,42.5 C 26.3505,43.552 26.5172,44.552 27,45.5C 30.8229,44.6622 34.4896,44.6622 38,45.5C 39.0588,45.3699 39.8921,44.8699 40.5,44C 36.0281,42.5634 31.3614,42.0634 26.5,42.5 Z"/></g>
<g><path style="opacity:0.078" fill="#ecf1f3" d="M 25.5,41.5 C 30.8333,41.5 36.1667,41.5 41.5,41.5C 41.5,43.1667 41.5,44.8333 41.5,46.5C 36.1667,46.5 30.8333,46.5 25.5,46.5C 25.5,44.8333 25.5,43.1667 25.5,41.5 Z M 26.5,42.5 C 26.3505,43.552 26.5172,44.552 27,45.5C 30.8229,44.6622 34.4896,44.6622 38,45.5C 39.0588,45.3699 39.8921,44.8699 40.5,44C 36.0281,42.5634 31.3614,42.0634 26.5,42.5 Z"/></g>
<g><path style="opacity:1" fill="#20f7f4" d="M 201.5,36.5 C 201.185,40.3714 201.518,44.0381 202.5,47.5C 204.74,46.4324 206.574,44.7658 208,42.5C 209.509,43.0897 211.009,43.7564 212.5,44.5C 211.675,45.3857 210.675,45.719 209.5,45.5C 209.714,47.1439 209.38,48.6439 208.5,50C 209.328,50.9147 210.328,51.5814 211.5,52C 209.391,52.9066 208.058,54.4066 207.5,56.5C 207.167,56.5 206.833,56.5 206.5,56.5C 205.5,55.1667 204.5,55.1667 203.5,56.5C 202.883,56.6107 202.383,56.944 202,57.5C 201.503,60.146 201.336,62.8127 201.5,65.5C 199.167,65.5 196.833,65.5 194.5,65.5C 194.5,55.8333 194.5,46.1667 194.5,36.5C 196.833,36.5 199.167,36.5 201.5,36.5 Z"/></g>
<g><path style="opacity:1" fill="#1ef6f2" d="M 232.5,36.5 C 234.262,37.2623 235.262,38.5956 235.5,40.5C 236.08,42.7488 237.413,44.4154 239.5,45.5C 240.63,47.3146 241.296,49.3146 241.5,51.5C 240.833,52.1667 240.167,52.8333 239.5,53.5C 238.167,52.8333 236.833,52.1667 235.5,51.5C 234.878,50.3734 234.045,49.3734 233,48.5C 232.501,53.8229 232.334,59.1563 232.5,64.5C 230.393,65.4682 228.059,65.8016 225.5,65.5C 225.5,55.8333 225.5,46.1667 225.5,36.5C 227.833,36.5 230.167,36.5 232.5,36.5 Z"/></g>
<g><path style="opacity:0.624" fill="#8aadb5" d="M 42.5,39.5 C 43.1667,39.5 43.5,39.8333 43.5,40.5C 43.5,42.1667 43.5,43.8333 43.5,45.5C 43.7148,47.1788 43.0481,48.1788 41.5,48.5C 40.8333,48.5 40.1667,48.5 39.5,48.5C 38.8333,48.5 38.1667,48.5 37.5,48.5C 36.5,48.5 35.5,48.5 34.5,48.5C 31.1667,48.5 27.8333,48.5 24.5,48.5C 24.5,48.1667 24.5,47.8333 24.5,47.5C 30.5,47.5 36.5,47.5 42.5,47.5C 42.5,44.8333 42.5,42.1667 42.5,39.5 Z"/></g>
<g><path style="opacity:0.646" fill="#85adb7" d="M 55.5,47.5 C 70.0097,47.8293 84.3431,47.4959 98.5,46.5C 98.8333,46.5 99.1667,46.5 99.5,46.5C 100.478,46.189 101.145,45.5223 101.5,44.5C 98.9814,42.3591 98.9814,40.3591 101.5,38.5C 105.132,41.2422 105.465,44.4089 102.5,48C 86.6612,48.828 70.9946,48.6613 55.5,47.5 Z"/></g>
<g><path style="opacity:0.861" fill="#8bd6d4" d="M 177.5,42.5 C 176.167,42.5 174.833,42.5 173.5,42.5C 173.5,44.1667 173.5,45.8333 173.5,47.5C 178.167,47.5 182.833,47.5 187.5,47.5C 188.833,49.5 188.833,51.5 187.5,53.5C 187.167,53.5 186.833,53.5 186.5,53.5C 186.5,51.8333 186.5,50.1667 186.5,48.5C 181.833,48.5 177.167,48.5 172.5,48.5C 172.5,46.1667 172.5,43.8333 172.5,41.5C 177.833,41.5 183.167,41.5 188.5,41.5C 188.5,39.8333 188.5,38.1667 188.5,36.5C 181.167,36.5 173.833,36.5 166.5,36.5C 166.5,45.8333 166.5,55.1667 166.5,64.5C 166.5,64.8333 166.5,65.1667 166.5,65.5C 165.51,59.69 165.177,53.69 165.5,47.5C 165.5,43.8333 165.5,40.1667 165.5,36.5C 165.611,35.8826 165.944,35.3826 166.5,35C 173.833,34.3333 181.167,34.3333 188.5,35C 189.435,37.3806 189.768,39.8806 189.5,42.5C 185.5,42.5 181.5,42.5 177.5,42.5 Z"/></g>
<g><path style="opacity:1" fill="#12f9f4" d="M 364.5,59.5 C 368.5,59.5 372.5,59.5 376.5,59.5C 376.5,61.5 376.5,63.5 376.5,65.5C 370.833,65.5 365.167,65.5 359.5,65.5C 358.195,63.6028 357.529,61.2695 357.5,58.5C 357.786,54.1562 358.12,49.8228 358.5,45.5C 360.167,45.5 361.833,45.5 363.5,45.5C 363.181,50.3633 363.514,55.03 364.5,59.5 Z"/></g>
<g><path style="opacity:1" fill="#0afbf9" d="M 392.5,49.5 C 393.329,54.453 393.663,59.453 393.5,64.5C 391.833,64.5 390.167,64.5 388.5,64.5C 388.665,61.4816 388.498,58.4816 388,55.5C 387.617,54.944 387.117,54.6107 386.5,54.5C 386.5,54.1667 386.5,53.8333 386.5,53.5C 386.518,50.851 386.518,48.1843 386.5,45.5C 388.264,47.2776 390.264,48.6109 392.5,49.5 Z"/></g>
<g><path style="opacity:1" fill="#9beae6" d="M 316.5,45.5 C 316.751,47.1703 317.418,48.6703 318.5,50C 317.748,50.6708 317.414,51.5041 317.5,52.5C 315.721,54.3435 313.388,55.0102 310.5,54.5C 310.232,52.901 310.566,51.5676 311.5,50.5C 311.5,51.5 311.5,52.5 311.5,53.5C 313.288,53.7852 314.955,53.4519 316.5,52.5C 316.086,50.0808 315.086,48.0808 313.5,46.5C 313.369,45.7611 313.536,45.0944 314,44.5C 314.671,45.2524 315.504,45.5858 316.5,45.5 Z"/></g>
<g><path style="opacity:1" fill="#8febe7" d="M 402.5,36.5 C 404.048,36.8212 404.715,37.8212 404.5,39.5C 402.027,44.4469 399.527,49.4469 397,54.5C 396.823,58.3563 396.323,62.023 395.5,65.5C 394.43,57.0726 396.43,49.5726 401.5,43C 400.549,42.2825 400.383,41.4491 401,40.5C 401.667,39.1667 402.333,39.1667 403,40.5C 403.579,39.0715 403.412,37.7382 402.5,36.5 Z"/></g>
<g><path style="opacity:0.015" fill="#f9fafa" d="M 93.5,51.5 C 86.5,51.5 79.5,51.5 72.5,51.5C 72.1667,51.5 71.8333,51.5 71.5,51.5C 71.9175,50.7784 72.5842,50.2784 73.5,50C 79.8333,49.3333 86.1667,49.3333 92.5,50C 93.056,50.3826 93.3893,50.8826 93.5,51.5 Z"/></g>
<g><path style="opacity:1" fill="#84e5e4" d="M 272.5,41.5 C 271.266,47.8543 271.266,54.1876 272.5,60.5C 271.21,59.9423 270.377,58.9423 270,57.5C 268.293,53.1251 268.293,48.7918 270,44.5C 270.377,43.0577 271.21,42.0577 272.5,41.5 Z"/></g>
<g><path style="opacity:1" fill="#37f6f2" d="M 272.5,41.5 C 275.108,41.4003 277.442,42.0669 279.5,43.5C 277.343,46.6875 277.01,50.0208 278.5,53.5C 279.5,54.8333 280.5,56.1667 281.5,57.5C 282.134,58.9468 283.301,59.6134 285,59.5C 286.07,59.472 286.903,59.1386 287.5,58.5C 289.869,58.1489 292.203,57.9822 294.5,58C 297.018,59.8101 297.018,61.6434 294.5,63.5C 286.421,68.1079 279.088,67.1079 272.5,60.5C 271.266,54.1876 271.266,47.8543 272.5,41.5 Z"/></g>
<g><path style="opacity:0.035" fill="#eef1f1" d="M 44.5,36.5 C 46.4417,41.0557 47.1083,46.0557 46.5,51.5C 38.16,51.6664 29.8267,51.4997 21.5,51C 19.6803,50.7996 18.347,49.9663 17.5,48.5C 23.3178,49.6514 28.9845,49.6514 34.5,48.5C 35.5,48.5 36.5,48.5 37.5,48.5C 38.1667,49.8333 38.8333,49.8333 39.5,48.5C 40.1667,48.5 40.8333,48.5 41.5,48.5C 42.209,49.404 43.209,49.7373 44.5,49.5C 44.7678,47.901 44.4345,46.5676 43.5,45.5C 43.5,43.8333 43.5,42.1667 43.5,40.5C 44.4345,39.4324 44.7678,38.099 44.5,36.5 Z"/></g>
<g><path style="opacity:0.055" fill="#e4ebed" d="M 5.5,49.5 C 7.80437,52.1413 10.1377,54.808 12.5,57.5C 8.76413,56.0953 6.4308,53.4287 5.5,49.5 Z"/></g>
<g><path style="opacity:1" fill="#23f8f5" d="M 312.5,55.5 C 314.265,56.4614 316.265,56.7947 318.5,56.5C 318.5,57.5 318.5,58.5 318.5,59.5C 314.351,58.9197 310.684,59.5864 307.5,61.5C 307.461,62.5832 307.127,63.5832 306.5,64.5C 303.973,65.2136 301.473,65.8803 299,66.5C 298.601,66.2716 298.435,65.9382 298.5,65.5C 298.98,62.5568 299.98,59.8902 301.5,57.5C 302.117,57.6107 302.617,57.944 303,58.5C 303.597,55.0422 304.597,51.7088 306,48.5C 307.942,45.8376 309.775,45.5042 311.5,47.5C 310.008,49.9724 309.342,52.6391 309.5,55.5C 310.5,55.5 311.5,55.5 312.5,55.5 Z"/></g>
<g><path style="opacity:0.087" fill="#eaf2f2" d="M 155.5,42.5 C 154.863,50.2662 154.196,57.9329 153.5,65.5C 152.868,57.4271 153.535,49.7605 155.5,42.5 Z"/></g>
<g><path style="opacity:1" fill="#34f5f2" d="M 324.5,50.5 C 326.008,52.1815 327.008,54.1815 327.5,56.5C 328.213,59.5939 329.213,62.5939 330.5,65.5C 330.565,65.9382 330.399,66.2716 330,66.5C 327.26,65.7178 324.426,65.2178 321.5,65C 320.663,63.9887 320.33,62.8221 320.5,61.5C 320.5,60.1667 319.833,59.5 318.5,59.5C 318.5,58.5 318.5,57.5 318.5,56.5C 316.265,56.7947 314.265,56.4614 312.5,55.5C 314.5,55.5 316.5,55.5 318.5,55.5C 318.737,54.209 318.404,53.209 317.5,52.5C 317.414,51.5041 317.748,50.6708 318.5,50C 317.418,48.6703 316.751,47.1703 316.5,45.5C 316.81,44.2617 317.31,44.2617 318,45.5C 317.923,44.2624 318.089,43.2624 318.5,42.5C 319.167,43.1667 319.833,43.8333 320.5,44.5C 321.228,47.2125 322.061,49.8791 323,52.5C 323.278,51.5842 323.778,50.9175 324.5,50.5 Z"/></g>
<g><path style="opacity:0.101" fill="#e1e9ec" d="M 12.5,40.5 C 12.1437,45.9516 14.477,49.7849 19.5,52C 28.8274,52.4998 38.1607,52.6665 47.5,52.5C 47.4431,53.609 47.1098,54.609 46.5,55.5C 43.1401,55.3841 39.8067,55.0508 36.5,54.5C 36.5,55.5 36.5,56.5 36.5,57.5C 37.8333,57.5 39.1667,57.5 40.5,57.5C 39.4324,58.4345 38.099,58.7678 36.5,58.5C 36.7239,60.7867 37.3906,62.9534 38.5,65C 38.0217,66.3026 37.355,67.4693 36.5,68.5C 35.5151,64.3656 35.1818,60.0323 35.5,55.5C 33.8333,54.1667 32.1667,54.1667 30.5,55.5C 29.8333,55.5 29.1667,55.5 28.5,55.5C 26.8333,54.1667 25.1667,54.1667 23.5,55.5C 14.9246,54.5965 10.5913,49.9298 10.5,41.5C 11.1667,41.1667 11.8333,40.8333 12.5,40.5 Z"/></g>
<g><path style="opacity:1" fill="#44a1bc" d="M 46.5,55.5 C 48.7812,55.0773 50.4479,55.744 51.5,57.5C 50.8333,57.5 50.1667,57.5 49.5,57.5C 46.5,56.1667 43.5,56.1667 40.5,57.5C 39.1667,57.5 37.8333,57.5 36.5,57.5C 36.5,56.5 36.5,55.5 36.5,54.5C 39.8067,55.0508 43.1401,55.3841 46.5,55.5 Z"/></g>
<g><path style="opacity:1" fill="#54839c" d="M 71.5,51.5 C 71.8333,51.5 72.1667,51.5 72.5,51.5C 72.3284,52.4916 72.6618,53.1583 73.5,53.5C 73.5,54.1667 73.5,54.8333 73.5,55.5C 73.5,56.1667 73.5,56.8333 73.5,57.5C 73.6666,70.5043 73.4999,83.5043 73,96.5C 72.79,98.0581 72.29,99.3915 71.5,100.5C 71.5,99.8333 71.1667,99.5 70.5,99.5C 71.4841,83.5775 71.8175,67.5775 71.5,51.5 Z"/></g>
<g><path style="opacity:0.978" fill="#59a3ba" d="M 111.5,34.5 C 111.833,34.5 112.167,34.5 112.5,34.5C 115.917,41.8243 114.583,48.3243 108.5,54C 106.913,54.8624 105.246,55.5291 103.5,56C 95.8406,56.4997 88.1739,56.6664 80.5,56.5C 80.2155,58.4147 80.5489,60.0813 81.5,61.5C 81.8333,61.5 82.1667,61.5 82.5,61.5C 82.6567,62.8734 82.49,64.2068 82,65.5C 81.0228,66.7736 80.1894,66.7736 79.5,65.5C 79.0164,62.2842 79.0164,58.9509 79.5,55.5C 80.5,55.5 81.5,55.5 82.5,55.5C 83.5,55.5 84.5,55.5 85.5,55.5C 86.8333,55.5 88.1667,55.5 89.5,55.5C 92.5,55.5 95.5,55.5 98.5,55.5C 110.748,53.3296 115.082,46.3296 111.5,34.5 Z"/></g>
<g><path style="opacity:0.047" fill="#e2e9ec" d="M 110.5,27.5 C 112.987,29.8089 114.987,32.4756 116.5,35.5C 117.934,51.5729 110.434,59.5729 94,59.5C 91.8333,59.3333 89.6667,59.1667 87.5,59C 86.0096,57.3657 84.6763,57.699 83.5,60C 84.1079,60.8699 84.9412,61.3699 86,61.5C 90.7812,60.581 95.6145,60.2477 100.5,60.5C 100.389,61.1174 100.056,61.6174 99.5,62C 93.7507,62.7847 88.084,62.6181 82.5,61.5C 82.1667,57.5 81.8333,57.5 81.5,61.5C 80.5489,60.0813 80.2155,58.4147 80.5,56.5C 88.1739,56.6664 95.8406,56.4997 103.5,56C 105.246,55.5291 106.913,54.8624 108.5,54C 114.583,48.3243 115.917,41.8243 112.5,34.5C 111.925,32.5887 110.925,30.922 109.5,29.5C 110.338,29.1583 110.672,28.4916 110.5,27.5 Z"/></g>
<g><path style="opacity:0.043" fill="#e3ebee" d="M 6.5,38.5 C 7.5,39.1667 8.5,39.8333 9.5,40.5C 8.83333,40.5 8.5,40.8333 8.5,41.5C 8.63345,49.6642 12.9668,54.6642 21.5,56.5C 22.1667,57.8333 22.8333,57.8333 23.5,56.5C 26.8333,56.5 30.1667,56.5 33.5,56.5C 33.5,61.5 33.5,66.5 33.5,71.5C 32.7109,71.2172 32.0442,70.7172 31.5,70C 32.435,67.6194 32.7683,65.1194 32.5,62.5C 30.302,62.8799 28.6354,62.2132 27.5,60.5C 29.1172,61.038 30.7839,61.3713 32.5,61.5C 32.5,60.5 32.5,59.5 32.5,58.5C 17.2432,61.7137 8.24324,55.7137 5.5,40.5C 5.54272,39.5836 5.87605,38.9169 6.5,38.5 Z"/></g>
<g><path style="opacity:0.996" fill="#71aabe" d="M 116.5,35.5 C 117.167,35.8333 117.833,36.1667 118.5,36.5C 120.508,50.4932 114.508,58.4932 100.5,60.5C 95.6145,60.2477 90.7812,60.581 86,61.5C 84.9412,61.3699 84.1079,60.8699 83.5,60C 84.6763,57.699 86.0096,57.3657 87.5,59C 89.6667,59.1667 91.8333,59.3333 94,59.5C 110.434,59.5729 117.934,51.5729 116.5,35.5 Z"/></g>
<g><path style="opacity:0.788" fill="#65a5bb" d="M 7.5,34.5 C 9.17515,36.456 8.84181,37.7893 6.5,38.5C 5.87605,38.9169 5.54272,39.5836 5.5,40.5C 8.24324,55.7137 17.2432,61.7137 32.5,58.5C 32.5,59.5 32.5,60.5 32.5,61.5C 30.7839,61.3713 29.1172,61.038 27.5,60.5C 22.1296,61.5482 17.1296,60.5482 12.5,57.5C 10.1377,54.808 7.80437,52.1413 5.5,49.5C 5.16667,47.5 4.83333,45.5 4.5,43.5C 4.5,41.8333 4.5,40.1667 4.5,38.5C 4.77128,36.6883 5.43795,35.0217 6.5,33.5C 7.10667,33.6236 7.44001,33.9569 7.5,34.5 Z"/></g>
<g><path style="opacity:0.055" fill="#d6e9e9" d="M 206.5,56.5 C 206.833,56.5 207.167,56.5 207.5,56.5C 208.11,57.391 208.443,58.391 208.5,59.5C 207.094,59.0269 206.427,58.0269 206.5,56.5 Z"/></g>
<g><path style="opacity:0.046" fill="#edf3f3" d="M 235.5,51.5 C 233.865,55.573 232.865,59.9063 232.5,64.5C 232.334,59.1563 232.501,53.8229 233,48.5C 234.045,49.3734 234.878,50.3734 235.5,51.5 Z"/></g>
<g><path style="opacity:1" fill="#48f0ee" d="M 245.5,36.5 C 247.833,36.5 250.167,36.5 252.5,36.5C 252.5,46.1667 252.5,55.8333 252.5,65.5C 249.813,65.6641 247.146,65.4974 244.5,65C 241.252,60.6004 238.252,56.1004 235.5,51.5C 236.833,52.1667 238.167,52.8333 239.5,53.5C 240.945,55.133 242.279,56.9663 243.5,59C 245.791,59.0154 247.958,59.1821 250,59.5C 250.896,52.7532 251.396,45.4199 251.5,37.5C 249.856,37.2865 248.356,37.6198 247,38.5C 246.829,43.8642 246.329,49.1975 245.5,54.5C 243.84,53.8284 242.507,52.8284 241.5,51.5C 241.296,49.3146 240.63,47.3146 239.5,45.5C 241.262,46.2623 242.262,47.5956 242.5,49.5C 244.853,53.8117 245.853,53.4784 245.5,48.5C 245.137,44.6174 245.137,40.6174 245.5,36.5 Z"/></g>
<g><path style="opacity:0.047" fill="#f1f6f7" d="M 245.5,48.5 C 245.853,53.4784 244.853,53.8117 242.5,49.5C 243.609,49.4431 244.609,49.1098 245.5,48.5 Z"/></g>
<g><path style="opacity:1" fill="#07fbf9" d="M 239.5,53.5 C 240.167,52.8333 240.833,52.1667 241.5,51.5C 242.507,52.8284 243.84,53.8284 245.5,54.5C 246.329,49.1975 246.829,43.8642 247,38.5C 248.356,37.6198 249.856,37.2865 251.5,37.5C 251.396,45.4199 250.896,52.7532 250,59.5C 247.958,59.1821 245.791,59.0154 243.5,59C 242.279,56.9663 240.945,55.133 239.5,53.5 Z"/></g>
<g><path style="opacity:0.119" fill="#d9e6e6" d="M 173.5,53.5 C 177.833,53.5 182.167,53.5 186.5,53.5C 186.833,53.5 187.167,53.5 187.5,53.5C 183.366,54.4849 179.032,54.8182 174.5,54.5C 174.5,55.8333 174.5,57.1667 174.5,58.5C 179.695,58.1795 184.695,58.5128 189.5,59.5C 184.167,59.5 178.833,59.5 173.5,59.5C 173.5,57.5 173.5,55.5 173.5,53.5 Z"/></g>
<g><path style="opacity:0.482" fill="#aad6d6" d="M 281.5,57.5 C 283.435,58.1495 285.435,58.4828 287.5,58.5C 286.903,59.1386 286.07,59.472 285,59.5C 283.301,59.6134 282.134,58.9468 281.5,57.5 Z"/></g>
<g><path style="opacity:0.341" fill="#bfdadb" d="M 364.5,54.5 C 365.434,55.5676 365.768,56.901 365.5,58.5C 369.5,58.5 373.5,58.5 377.5,58.5C 377.802,61.0593 377.468,63.3926 376.5,65.5C 376.5,63.5 376.5,61.5 376.5,59.5C 372.5,59.5 368.5,59.5 364.5,59.5C 364.5,57.8333 364.5,56.1667 364.5,54.5 Z"/></g>
<g><path style="opacity:0.101" fill="#cae6e5" d="M 301.5,55.5 C 301.5,56.1667 301.5,56.8333 301.5,57.5C 299.98,59.8902 298.98,62.5568 298.5,65.5C 297.533,64.1938 296.199,63.5271 294.5,63.5C 297.018,61.6434 297.018,59.8101 294.5,58C 292.203,57.9822 289.869,58.1489 287.5,58.5C 289.046,57.1402 290.88,56.1402 293,55.5C 294.99,56.8182 296.99,58.1515 299,59.5C 299.2,57.6803 300.034,56.347 301.5,55.5 Z"/></g>
<g><path style="opacity:0.697" fill="#98d5d6" d="M 318.5,59.5 C 319.833,59.5 320.5,60.1667 320.5,61.5C 316.218,60.6796 311.885,60.6796 307.5,61.5C 310.684,59.5864 314.351,58.9197 318.5,59.5 Z"/></g>
<g><path style="opacity:1" fill="#3ff1ef" d="M 173.5,53.5 C 173.5,55.5 173.5,57.5 173.5,59.5C 178.833,59.5 184.167,59.5 189.5,59.5C 190.461,61.2646 190.795,63.2646 190.5,65.5C 182.5,65.5 174.5,65.5 166.5,65.5C 166.5,65.1667 166.5,64.8333 166.5,64.5C 169.448,64.7771 172.281,64.4438 175,63.5C 175.617,62.5509 175.451,61.7175 174.5,61C 173.167,60.6667 171.833,60.3333 170.5,60C 171.731,57.834 172.731,55.6674 173.5,53.5 Z"/></g>
<g><path style="opacity:0.696" fill="#a7dad9" d="M 386.5,54.5 C 387.117,54.6107 387.617,54.944 388,55.5C 388.498,58.4816 388.665,61.4816 388.5,64.5C 389.209,65.404 390.209,65.7373 391.5,65.5C 389.243,66.8861 387.576,66.2195 386.5,63.5C 387.357,60.5491 387.357,57.5491 386.5,54.5 Z"/></g>
<g><path style="opacity:1" fill="#4f90ae" d="M 53.5,51.5 C 55.1788,51.2852 56.1788,51.9519 56.5,53.5C 56.5,59.5 56.5,65.5 56.5,71.5C 56.5,76.1667 56.5,80.8333 56.5,85.5C 56.5,87.1667 56.5,88.8333 56.5,90.5C 55.8333,90.5 55.1667,90.5 54.5,90.5C 55.136,77.4179 54.4693,64.5845 52.5,52C 52.7284,51.6012 53.0618,51.4346 53.5,51.5 Z"/></g>
<g><path style="opacity:0.018" fill="#f3f8f8" d="M 203.5,56.5 C 203.01,59.6553 202.344,62.6553 201.5,65.5C 201.336,62.8127 201.503,60.146 202,57.5C 202.383,56.944 202.883,56.6107 203.5,56.5 Z"/></g>
<g><path style="opacity:0.973" fill="#5698b1" d="M 8.5,41.5 C 9.16667,41.5 9.83333,41.5 10.5,41.5C 10.5913,49.9298 14.9246,54.5965 23.5,55.5C 25.1667,55.5 26.8333,55.5 28.5,55.5C 29.1667,55.5 29.8333,55.5 30.5,55.5C 32.1667,55.5 33.8333,55.5 35.5,55.5C 35.1818,60.0323 35.5151,64.3656 36.5,68.5C 36.5,69.5 36.5,70.5 36.5,71.5C 35.5,72.8333 34.5,72.8333 33.5,71.5C 33.5,66.5 33.5,61.5 33.5,56.5C 30.1667,56.5 26.8333,56.5 23.5,56.5C 22.8333,56.5 22.1667,56.5 21.5,56.5C 12.9668,54.6642 8.63345,49.6642 8.5,41.5 Z"/></g>
<g><path style="opacity:0.078" fill="#e5efef" d="M 232.5,36.5 C 230.167,36.5 227.833,36.5 225.5,36.5C 225.5,46.1667 225.5,55.8333 225.5,65.5C 224.167,65.5 222.833,65.5 221.5,65.5C 220.5,63.5 219.5,61.5 218.5,59.5C 220.129,60.6253 221.629,61.9586 223,63.5C 224.021,54.1957 224.854,44.8623 225.5,35.5C 228.079,34.3654 230.413,34.6987 232.5,36.5 Z"/></g>
<g><path style="opacity:0.144" fill="#e0e5e7" d="M 41.5,60.5 C 42.4027,68.4583 42.736,76.4583 42.5,84.5C 40.2646,84.7947 38.2646,84.4614 36.5,83.5C 37.8333,83.5 39.1667,83.5 40.5,83.5C 40.8132,76.2454 40.4799,69.0787 39.5,62C 40.0442,61.2828 40.7109,60.7828 41.5,60.5 Z"/></g>
<g><path style="opacity:1" fill="#518eb1" d="M 41.5,60.5 C 42.5,60.5 43.5,60.5 44.5,60.5C 45.0967,60.7352 45.4301,61.2352 45.5,62C 44.5862,63.4064 43.9195,64.9064 43.5,66.5C 43.5,67.8333 43.5,69.1667 43.5,70.5C 43.5,74.5 43.5,78.5 43.5,82.5C 43.5,83.1667 43.5,83.8333 43.5,84.5C 43.5,84.8333 43.5,85.1667 43.5,85.5C 43.5,85.8333 43.5,86.1667 43.5,86.5C 40.9407,86.1984 38.6074,86.5318 36.5,87.5C 35.391,87.4431 34.391,87.1098 33.5,86.5C 32.4502,86.0954 32.4502,85.4288 33.5,84.5C 34.325,83.6143 35.325,83.281 36.5,83.5C 38.2646,84.4614 40.2646,84.7947 42.5,84.5C 42.736,76.4583 42.4027,68.4583 41.5,60.5 Z"/></g>
<g><path style="opacity:0.996" fill="#5d93ae" d="M 87.5,71.5 C 85.0521,70.5269 82.3854,70.1936 79.5,70.5C 79.1667,70.5 78.8333,70.5 78.5,70.5C 76.744,71.5521 76.0773,73.2188 76.5,75.5C 76.1667,75.5 75.8333,75.5 75.5,75.5C 75.5,74.5 75.5,73.5 75.5,72.5C 75.5,71.1667 75.5,69.8333 75.5,68.5C 78.1667,68.5 80.8333,68.5 83.5,68.5C 85.4944,67.6503 87.4944,67.1503 89.5,67C 90.8692,69.2393 90.3692,71.0726 88,72.5C 87.6012,72.2716 87.4346,71.9382 87.5,71.5 Z"/></g>
<g><path style="opacity:0.11" fill="#eef1f2" d="M 36.5,68.5 C 38.5567,68.9567 38.5567,69.9567 36.5,71.5C 36.5,70.5 36.5,69.5 36.5,68.5 Z"/></g>
<g><path style="opacity:0.075" fill="#edf0f2" d="M 51.5,49.5 C 52.5,49.8333 53.1667,50.5 53.5,51.5C 53.0618,51.4346 52.7284,51.6012 52.5,52C 54.4693,64.5845 55.136,77.4179 54.5,90.5C 54.1667,91.1667 53.8333,91.8333 53.5,92.5C 52.8333,91.8333 52.1667,91.1667 51.5,90.5C 51.5,88.5 51.5,86.5 51.5,84.5C 52.8333,83.8333 52.8333,83.1667 51.5,82.5C 51.5,82.1667 51.5,81.8333 51.5,81.5C 52.4933,72.6822 52.8266,63.6822 52.5,54.5C 50.8212,54.7148 49.8212,54.0481 49.5,52.5C 50.9063,52.0269 51.573,51.0269 51.5,49.5 Z"/></g>
<g><path style="opacity:0.125" fill="#e1e8ec" d="M 79.5,70.5 C 82.3854,70.1936 85.0521,70.5269 87.5,71.5C 85.4588,71.8541 83.6255,71.8541 82,71.5C 81.5357,72.0944 81.369,72.7611 81.5,73.5C 80.5,73.5 79.5,73.5 78.5,73.5C 79.1098,72.609 79.4431,71.609 79.5,70.5 Z"/></g>
<g><path style="opacity:0.092" fill="#eceeef" d="M 58.5,51.5 C 58.5,67.1667 58.5,82.8333 58.5,98.5C 57.0214,97.1742 56.3547,95.8409 56.5,94.5C 57.8333,93.1667 57.8333,91.8333 56.5,90.5C 56.5,88.8333 56.5,87.1667 56.5,85.5C 57.8333,80.8333 57.8333,76.1667 56.5,71.5C 56.5,65.5 56.5,59.5 56.5,53.5C 57.1667,52.8333 57.8333,52.1667 58.5,51.5 Z"/></g>
<g><path style="opacity:0.785" fill="#6c98b3" d="M 64.5,88.5 C 65.4951,76.6783 65.8284,64.6783 65.5,52.5C 63.2188,52.0773 61.5521,52.744 60.5,54.5C 61.7703,67.1433 61.7703,79.8099 60.5,92.5C 60.5,93.8333 60.5,95.1667 60.5,96.5C 60.8333,97.1667 61.1667,97.8333 61.5,98.5C 60.6522,99.625 59.6522,99.625 58.5,98.5C 58.5,82.8333 58.5,67.1667 58.5,51.5C 61.304,50.8885 64.304,50.8885 67.5,51.5C 67.2046,64.1975 67.5379,76.8642 68.5,89.5C 68.5472,91.0004 67.8805,92.0004 66.5,92.5C 64.8888,91.6798 64.2222,90.3464 64.5,88.5 Z"/></g>
<g><path style="opacity:0.062" fill="#f0f4f5" d="M 64.5,88.5 C 63.59,77.1977 63.2566,65.8644 63.5,54.5C 62.5,54.5 61.5,54.5 60.5,54.5C 61.5521,52.744 63.2188,52.0773 65.5,52.5C 65.8284,64.6783 65.4951,76.6783 64.5,88.5 Z"/></g>
<g><path style="opacity:0.122" fill="#e1e7ea" d="M 43.5,66.5 C 44.1667,66.8333 44.8333,67.1667 45.5,67.5C 46.3978,75.1244 46.7311,82.7911 46.5,90.5C 43.8333,90.5 41.1667,90.5 38.5,90.5C 40.2646,89.5386 42.2646,89.2053 44.5,89.5C 44.7373,88.209 44.404,87.209 43.5,86.5C 43.5,86.1667 43.5,85.8333 43.5,85.5C 44.8333,85.1667 44.8333,84.8333 43.5,84.5C 43.5,83.8333 43.5,83.1667 43.5,82.5C 44.8333,78.5 44.8333,74.5 43.5,70.5C 43.5,69.1667 43.5,67.8333 43.5,66.5 Z"/></g>
<g><path style="opacity:1" fill="#4683af" d="M 78.5,73.5 C 79.5,73.5 80.5,73.5 81.5,73.5C 82.8333,74.5 82.8333,75.5 81.5,76.5C 80.508,83.9818 80.1746,91.6484 80.5,99.5C 80.7373,100.791 80.404,101.791 79.5,102.5C 79.1667,102.5 78.8333,102.5 78.5,102.5C 79.1995,98.2022 79.5328,93.8689 79.5,89.5C 79.5,85.5 79.5,81.5 79.5,77.5C 78.7659,76.2921 78.4326,74.9587 78.5,73.5 Z"/></g>
<g><path style="opacity:0.267" fill="#ccd4da" d="M 81.5,76.5 C 81.2012,83.8907 81.5345,91.224 82.5,98.5C 82.0431,99.2975 81.3764,99.6309 80.5,99.5C 80.1746,91.6484 80.508,83.9818 81.5,76.5 Z"/></g>
<g><path style="opacity:0.111" fill="#ebeff1" d="M 73.5,57.5 C 74.4794,60.6248 74.8128,63.9581 74.5,67.5C 77.7131,67.19 80.7131,67.5233 83.5,68.5C 80.8333,68.5 78.1667,68.5 75.5,68.5C 75.5,69.8333 75.5,71.1667 75.5,72.5C 74.1667,78.5 74.1667,84.5 75.5,90.5C 76.0355,95.3118 75.0355,99.6452 72.5,103.5C 72.6716,102.508 72.3382,101.842 71.5,101.5C 71.5,101.167 71.5,100.833 71.5,100.5C 72.29,99.3915 72.79,98.0581 73,96.5C 73.4999,83.5043 73.6666,70.5043 73.5,57.5 Z"/></g>
<g><path style="opacity:0.737" fill="#aabbd4" d="M 205.5,84.5 C 204.395,83.3995 203.062,82.7329 201.5,82.5C 201.167,82.5 200.833,82.5 200.5,82.5C 203.017,79.9258 204.684,80.5925 205.5,84.5 Z"/></g>
<g><path style="opacity:0.063" fill="#f2f4f6" d="M 71.5,51.5 C 71.8175,67.5775 71.4841,83.5775 70.5,99.5C 70.5,100.167 70.1667,100.5 69.5,100.5C 69.7373,99.209 69.404,98.209 68.5,97.5C 68.5,96.8333 68.1667,96.5 67.5,96.5C 69.4659,81.5112 70.7992,66.5112 71.5,51.5 Z"/></g>
<g><path style="opacity:1" fill="#688ac1" d="M 259.5,87.5 C 259.633,84.075 258.967,83.7417 257.5,86.5C 257.443,85.391 257.11,84.391 256.5,83.5C 254.735,82.5386 252.735,82.2053 250.5,82.5C 250.5,86.8333 250.5,91.1667 250.5,95.5C 249.176,90.7663 249.176,85.9329 250.5,81C 253.711,80.2018 256.711,80.7018 259.5,82.5C 260.788,84.2985 260.788,85.9652 259.5,87.5 Z M 255.5,87.5 C 254.833,87.5 254.167,87.5 253.5,87.5C 251.946,86.1054 252.279,85.4387 254.5,85.5C 256.721,85.4387 257.054,86.1054 255.5,87.5 Z"/></g>
<g><path style="opacity:1" fill="#89a0cb" d="M 305.5,85.5 C 304.518,84.8592 303.518,84.1925 302.5,83.5C 301.893,83.6236 301.56,83.9569 301.5,84.5C 300.167,84.5 298.833,84.5 297.5,84.5C 298.263,83.7321 299.263,83.2321 300.5,83C 298.115,82.4436 295.782,82.6103 293.5,83.5C 296.826,79.7124 300.493,79.5457 304.5,83C 305.252,83.6708 305.586,84.5041 305.5,85.5 Z"/></g>
<g><path style="opacity:1" fill="#7c97c9" d="M 318.5,85.5 C 318.5,85.8333 318.5,86.1667 318.5,86.5C 317.167,86.5 316.5,87.1667 316.5,88.5C 315.076,86.4855 314.41,84.1522 314.5,81.5C 317.5,81.1667 318.833,82.5 318.5,85.5 Z"/></g>
<g><path style="opacity:0.255" fill="#ced8e3" d="M 346.5,81.5 C 347.906,81.9731 348.573,82.9731 348.5,84.5C 347.5,84.1667 346.833,83.5 346.5,82.5C 346.5,82.1667 346.5,81.8333 346.5,81.5 Z"/></g>
<g><path style="opacity:0.063" fill="#c3d1e3" d="M 256.5,83.5 C 257.11,84.391 257.443,85.391 257.5,86.5C 257.158,87.3382 256.492,87.6716 255.5,87.5C 257.054,86.1054 256.721,85.4387 254.5,85.5C 252.279,85.4387 251.946,86.1054 253.5,87.5C 251.775,87.1575 251.275,86.1575 252,84.5C 253.356,83.6198 254.856,83.2865 256.5,83.5 Z M 255.5,87.5 C 254.833,87.5 254.167,87.5 253.5,87.5C 251.946,86.1054 252.279,85.4387 254.5,85.5C 256.721,85.4387 257.054,86.1054 255.5,87.5 Z"/></g>
<g><path style="opacity:0.077" fill="#e2e7eb" d="M 78.5,70.5 C 77.375,71.6522 77.375,72.6522 78.5,73.5C 78.4326,74.9587 78.7659,76.2921 79.5,77.5C 78.1667,81.5 78.1667,85.5 79.5,89.5C 79.5328,93.8689 79.1995,98.2022 78.5,102.5C 78.1667,102.5 77.8333,102.5 77.5,102.5C 77.1583,101.662 76.4916,101.328 75.5,101.5C 76.4699,92.9177 76.8032,84.2511 76.5,75.5C 76.0773,73.2188 76.744,71.5521 78.5,70.5 Z"/></g>
<g><path style="opacity:1" fill="#567fd3" d="M 210.5,81.5 C 211.5,81.5 212.5,81.5 213.5,81.5C 213.666,86.1785 213.499,90.8452 213,95.5C 210.609,96.0506 208.775,95.0506 207.5,92.5C 206.925,90.5887 205.925,88.922 204.5,87.5C 204.44,86.9569 204.107,86.6236 203.5,86.5C 202.682,89.1071 202.182,91.7737 202,94.5C 201.501,90.5138 201.334,86.5138 201.5,82.5C 203.062,82.7329 204.395,83.3995 205.5,84.5C 206.055,86.7288 207.389,88.3954 209.5,89.5C 210.48,86.9135 210.813,84.2469 210.5,81.5 Z"/></g>
<g><path style="opacity:0.718" fill="#6b8fc6" d="M 223.5,81.5 C 224.5,81.5 225.5,81.5 226.5,81.5C 226.5,86.1667 226.5,90.8333 226.5,95.5C 225.5,95.5 224.5,95.5 223.5,95.5C 222.238,90.8188 222.238,86.1521 223.5,81.5 Z"/></g>
<g><path style="opacity:1" fill="#517dc4" d="M 297.5,84.5 C 295.088,84.6941 294.088,86.0274 294.5,88.5C 294.557,89.609 294.89,90.609 295.5,91.5C 297.011,93.4411 299.011,93.9411 301.5,93C 304.14,90.3794 304.14,87.8794 301.5,85.5C 301.5,85.1667 301.5,84.8333 301.5,84.5C 301.56,83.9569 301.893,83.6236 302.5,83.5C 303.518,84.1925 304.518,84.8592 305.5,85.5C 307.526,91.432 305.359,95.0987 299,96.5C 291.372,94.5308 289.539,90.1975 293.5,83.5C 295.782,82.6103 298.115,82.4436 300.5,83C 299.263,83.2321 298.263,83.7321 297.5,84.5 Z M 301.5,85.5 C 303.381,90.926 301.381,92.926 295.5,91.5C 294.89,90.609 294.557,89.609 294.5,88.5C 295.991,85.9093 298.325,84.9093 301.5,85.5 Z"/></g>
<g><path style="opacity:0.073" fill="#edf0f3" d="M 36.5,87.5 C 38.6074,86.5318 40.9407,86.1984 43.5,86.5C 41.5055,88.7107 39.1721,89.0441 36.5,87.5 Z"/></g>
<g><path style="opacity:0.098" fill="#dfe4eb" d="M 210.5,81.5 C 210.813,84.2469 210.48,86.9135 209.5,89.5C 207.389,88.3954 206.055,86.7288 205.5,84.5C 206.458,84.9528 207.292,85.6195 208,86.5C 208.374,84.5087 209.207,82.842 210.5,81.5 Z"/></g>
<g><path style="opacity:0.525" fill="#a0b6d5" d="M 281.5,83.5 C 280.508,83.3284 279.842,83.6618 279.5,84.5C 278.508,84.6716 277.842,84.3382 277.5,83.5C 276.341,82.4865 274.341,82.1532 271.5,82.5C 270.911,86.9707 271.577,90.9707 273.5,94.5C 274.547,95.0778 274.38,95.7445 273,96.5C 271.667,95.8333 270.667,94.8333 270,93.5C 269.482,89.4489 269.816,85.4489 271,81.5C 274.986,79.9685 278.486,80.6351 281.5,83.5 Z"/></g>
<g><path style="opacity:0.125" fill="#dfe6ed" d="M 297.5,84.5 C 298.833,84.5 300.167,84.5 301.5,84.5C 301.5,84.8333 301.5,85.1667 301.5,85.5C 298.325,84.9093 295.991,85.9093 294.5,88.5C 294.088,86.0274 295.088,84.6941 297.5,84.5 Z"/></g>
<g><path style="opacity:0.004" fill="#eff2f4" d="M 33.5,86.5 C 34.391,87.1098 35.391,87.4431 36.5,87.5C 35.791,88.404 34.791,88.7373 33.5,88.5C 33.5,87.8333 33.5,87.1667 33.5,86.5 Z"/></g>
<g><path style="opacity:0.012" fill="#fcfcfc" d="M 299.5,87.5 C 300.773,88.0768 300.773,88.7435 299.5,89.5C 298.537,89.0302 298.537,88.3635 299.5,87.5 Z"/></g>
<g><path style="opacity:1" fill="#1f65c5" d="M 318.5,86.5 C 318.5,87.5 318.5,88.5 318.5,89.5C 318.062,90.5063 317.396,90.5063 316.5,89.5C 316.5,89.1667 316.5,88.8333 316.5,88.5C 316.5,87.1667 317.167,86.5 318.5,86.5 Z"/></g>
<g><path style="opacity:1" fill="#6184ae" d="M 322.5,84.5 C 322.263,85.791 322.596,86.791 323.5,87.5C 323.672,88.4916 323.338,89.1583 322.5,89.5C 322.167,89.5 321.833,89.5 321.5,89.5C 321.5,88.5 321.5,87.5 321.5,86.5C 321.328,85.5084 321.662,84.8417 322.5,84.5 Z"/></g>
<g><path style="opacity:1" fill="#859bcd" d="M 186.5,81.5 C 187.833,81.5 189.167,81.5 190.5,81.5C 190.942,86.6912 190.442,91.6912 189,96.5C 188.586,96.0426 188.086,95.7093 187.5,95.5C 186.507,90.8804 186.173,86.2137 186.5,81.5 Z"/></g>
<g><path style="opacity:0.796" fill="#7f9dcf" d="M 200.5,82.5 C 200.833,82.5 201.167,82.5 201.5,82.5C 201.334,86.5138 201.501,90.5138 202,94.5C 202.182,91.7737 202.682,89.1071 203.5,86.5C 204.107,86.6236 204.44,86.9569 204.5,87.5C 203.527,89.9479 203.194,92.6146 203.5,95.5C 202.5,95.5 201.5,95.5 200.5,95.5C 199.543,91.0028 199.543,86.6695 200.5,82.5 Z"/></g>
<g><path style="opacity:1" fill="#3f76ce" d="M 256.5,83.5 C 254.856,83.2865 253.356,83.6198 252,84.5C 251.275,86.1575 251.775,87.1575 253.5,87.5C 254.167,87.5 254.833,87.5 255.5,87.5C 256.492,87.6716 257.158,87.3382 257.5,86.5C 258.967,83.7417 259.633,84.075 259.5,87.5C 262.84,92.7004 261.34,95.7004 255,96.5C 253.56,95.8524 252.06,95.5191 250.5,95.5C 250.5,91.1667 250.5,86.8333 250.5,82.5C 252.735,82.2053 254.735,82.5386 256.5,83.5 Z M 255.5,87.5 C 254.833,87.5 254.167,87.5 253.5,87.5C 251.946,86.1054 252.279,85.4387 254.5,85.5C 256.721,85.4387 257.054,86.1054 255.5,87.5 Z M 254.5,93.5 C 254.167,93.5 253.833,93.5 253.5,93.5C 251.946,92.1054 252.279,91.4387 254.5,91.5C 255.167,91.6667 255.833,91.8333 256.5,92C 255.584,92.2784 254.918,92.7784 254.5,93.5 Z"/></g>
<g><path style="opacity:0.09" fill="#e2e8ee" d="M 318.5,85.5 C 319.222,85.9175 319.722,86.5842 320,87.5C 320.383,86.944 320.883,86.6107 321.5,86.5C 321.5,87.5 321.5,88.5 321.5,89.5C 320.833,89.5 320.5,89.8333 320.5,90.5C 319.833,90.1667 319.167,89.8333 318.5,89.5C 318.5,88.5 318.5,87.5 318.5,86.5C 318.5,86.1667 318.5,85.8333 318.5,85.5 Z"/></g>
<g><path style="opacity:0.063" fill="#d7dfe9" d="M 330.5,85.5 C 330.741,87.8984 330.074,89.8984 328.5,91.5C 327.774,88.8206 326.941,86.154 326,83.5C 324.855,82.3157 323.688,82.3157 322.5,83.5C 323.455,81.2901 324.955,80.9568 327,82.5C 327.471,84.2464 328.138,85.913 329,87.5C 329.278,86.5842 329.778,85.9175 330.5,85.5 Z"/></g>
<g><path style="opacity:0.824" fill="#abc2d7" d="M 33.5,88.5 C 33.8333,89.1667 34.1667,89.8333 34.5,90.5C 32.8212,90.2852 31.8212,90.9519 31.5,92.5C 30.3207,90.5591 30.9873,89.2257 33.5,88.5 Z"/></g>
<g><path style="opacity:0.11" fill="#cfdae7" d="M 254.5,93.5 C 254.918,92.7784 255.584,92.2784 256.5,92C 255.833,91.8333 255.167,91.6667 254.5,91.5C 252.279,91.4387 251.946,92.1054 253.5,93.5C 251.824,92.8166 251.157,91.4832 251.5,89.5C 253.792,89.2436 255.959,89.5769 258,90.5C 258.333,92.9342 257.166,93.9342 254.5,93.5 Z M 254.5,93.5 C 254.167,93.5 253.833,93.5 253.5,93.5C 251.946,92.1054 252.279,91.4387 254.5,91.5C 255.167,91.6667 255.833,91.8333 256.5,92C 255.584,92.2784 254.918,92.7784 254.5,93.5 Z"/></g>
<g><path style="opacity:0.992" fill="#3f73c3" d="M 277.5,83.5 C 276.167,83.5 274.833,83.5 273.5,83.5C 273.5,85.5 273.5,87.5 273.5,89.5C 276.01,89.9465 278.01,89.2798 279.5,87.5C 279.5,86.8333 279.5,86.1667 279.5,85.5C 279.5,85.1667 279.5,84.8333 279.5,84.5C 279.842,83.6618 280.508,83.3284 281.5,83.5C 282.833,85.5 282.833,87.5 281.5,89.5C 279.618,90.221 279.285,91.221 280.5,92.5C 282.93,93.6533 282.93,94.6533 280.5,95.5C 278.825,95.1316 277.825,94.1316 277.5,92.5C 277.083,91.8761 276.416,91.5427 275.5,91.5C 274.287,91.7472 273.62,92.4138 273.5,93.5C 273.5,93.8333 273.5,94.1667 273.5,94.5C 271.577,90.9707 270.911,86.9707 271.5,82.5C 274.341,82.1532 276.341,82.4865 277.5,83.5 Z M 279.5,85.5 C 279.5,86.1667 279.5,86.8333 279.5,87.5C 277.883,88.038 276.216,88.3713 274.5,88.5C 274.472,84.5163 276.139,83.5163 279.5,85.5 Z"/></g>
<g><path style="opacity:0.176" fill="#d0d9e6" d="M 277.5,83.5 C 277.842,84.3382 278.508,84.6716 279.5,84.5C 279.5,84.8333 279.5,85.1667 279.5,85.5C 276.139,83.5163 274.472,84.5163 274.5,88.5C 276.216,88.3713 277.883,88.038 279.5,87.5C 278.01,89.2798 276.01,89.9465 273.5,89.5C 273.5,87.5 273.5,85.5 273.5,83.5C 274.833,83.5 276.167,83.5 277.5,83.5 Z"/></g>
<g><path style="opacity:0.043" fill="#cddae8" d="M 281.5,89.5 C 281.443,90.609 281.11,91.609 280.5,92.5C 279.285,91.221 279.618,90.221 281.5,89.5 Z"/></g>
<g><path style="opacity:1" fill="#7d96ca" d="M 316.5,89.5 C 317.396,90.5063 318.062,90.5063 318.5,89.5C 319.167,89.8333 319.833,90.1667 320.5,90.5C 319.205,91.0306 318.538,92.3639 318.5,94.5C 317.463,93.0697 316.796,91.403 316.5,89.5 Z"/></g>
<g><path style="opacity:0.11" fill="#dde4ec" d="M 326.5,93.5 C 325.732,92.7375 325.232,91.7375 325,90.5C 323.97,92.3464 322.804,94.0131 321.5,95.5C 321.833,93.5 322.167,91.5 322.5,89.5C 323.338,89.1583 323.672,88.4916 323.5,87.5C 324.302,86.1153 324.969,86.282 325.5,88C 326.233,89.7659 326.567,91.5992 326.5,93.5 Z"/></g>
<g><path style="opacity:1" fill="#708fc4" d="M 330.5,94.5 C 330.218,93.2223 329.551,92.2223 328.5,91.5C 330.074,89.8984 330.741,87.8984 330.5,85.5C 331.234,84.2921 331.567,82.9587 331.5,81.5C 332.978,81.238 334.311,81.5713 335.5,82.5C 334.198,86.7628 332.531,90.7628 330.5,94.5 Z"/></g>
<g><path style="opacity:0.008" fill="#dbe4ed" d="M 348.5,89.5 C 349.906,89.9731 350.573,90.9731 350.5,92.5C 349.094,92.0269 348.427,91.0269 348.5,89.5 Z"/></g>
<g><path style="opacity:1" fill="#497fa9" d="M 45.5,67.5 C 46.5,67.5 47.5,67.5 48.5,67.5C 48.5674,68.9587 48.2341,70.2921 47.5,71.5C 47.5,72.1667 47.5,72.8333 47.5,73.5C 47.5,77.1667 47.5,80.8333 47.5,84.5C 47.5,85.8333 47.5,87.1667 47.5,88.5C 47.5,89.5 47.5,90.5 47.5,91.5C 47.5,91.8333 47.5,92.1667 47.5,92.5C 42.9677,92.1818 38.6344,92.5151 34.5,93.5C 33.209,93.7373 32.209,93.404 31.5,92.5C 31.8212,90.9519 32.8212,90.2852 34.5,90.5C 35.8333,90.5 37.1667,90.5 38.5,90.5C 41.1667,90.5 43.8333,90.5 46.5,90.5C 46.7311,82.7911 46.3978,75.1244 45.5,67.5 Z"/></g>
<g><path style="opacity:1" fill="#3a7bbe" d="M 54.5,90.5 C 55.1667,90.5 55.8333,90.5 56.5,90.5C 57.8333,91.8333 57.8333,93.1667 56.5,94.5C 54.8212,94.7148 53.8212,94.0481 53.5,92.5C 53.8333,91.8333 54.1667,91.1667 54.5,90.5 Z"/></g>
<g><path style="opacity:0.045" fill="#ebeff3" d="M 204.5,87.5 C 205.925,88.922 206.925,90.5887 207.5,92.5C 206.85,92.1961 206.183,91.8627 205.5,91.5C 204.828,92.9492 204.161,94.2825 203.5,95.5C 203.194,92.6146 203.527,89.9479 204.5,87.5 Z"/></g>
<g><path style="opacity:0.145" fill="#e6ebf1" d="M 277.5,92.5 C 276.167,92.8333 274.833,93.1667 273.5,93.5C 273.62,92.4138 274.287,91.7472 275.5,91.5C 276.416,91.5427 277.083,91.8761 277.5,92.5 Z"/></g>
<g><path style="opacity:0.022" fill="#e8edf2" d="M 301.5,85.5 C 304.14,87.8794 304.14,90.3794 301.5,93C 299.011,93.9411 297.011,93.4411 295.5,91.5C 301.381,92.926 303.381,90.926 301.5,85.5 Z"/></g>
<g><path style="opacity:1" fill="#216aca" d="M 321.5,89.5 C 321.833,89.5 322.167,89.5 322.5,89.5C 322.167,91.5 321.833,93.5 321.5,95.5C 320.209,95.7373 319.209,95.404 318.5,94.5C 318.538,92.3639 319.205,91.0306 320.5,90.5C 320.5,89.8333 320.833,89.5 321.5,89.5 Z"/></g>
<g><path style="opacity:1" fill="#4174c2" d="M 328.5,91.5 C 329.551,92.2223 330.218,93.2223 330.5,94.5C 328.436,97.4528 327.103,97.1195 326.5,93.5C 326.567,91.5992 326.233,89.7659 325.5,88C 324.969,86.282 324.302,86.1153 323.5,87.5C 322.596,86.791 322.263,85.791 322.5,84.5C 322.5,84.1667 322.5,83.8333 322.5,83.5C 323.688,82.3157 324.855,82.3157 326,83.5C 326.941,86.154 327.774,88.8206 328.5,91.5 Z"/></g>
<g><path style="opacity:0.686" fill="#8da9d2" d="M 346.5,81.5 C 346.5,81.8333 346.5,82.1667 346.5,82.5C 345.307,82.9704 344.64,83.9704 344.5,85.5C 344.383,88.8081 345.05,89.1414 346.5,86.5C 347.919,87.0047 348.585,88.0047 348.5,89.5C 346.187,88.6083 345.853,89.4416 347.5,92C 346.576,96.7128 345.076,97.2128 343,93.5C 342.333,90.1667 342.333,86.8333 343,83.5C 343.71,82.0267 344.876,81.3601 346.5,81.5 Z"/></g>
<g><path style="opacity:0.128" fill="#eef1f3" d="M 34.5,93.5 C 38.6344,92.5151 42.9677,92.1818 47.5,92.5C 47.0679,93.7095 46.4013,94.7095 45.5,95.5C 45.1667,94.1667 44.8333,94.1667 44.5,95.5C 43.5,95.5 42.5,95.5 41.5,95.5C 39.3432,94.5933 37.0098,93.9267 34.5,93.5 Z"/></g>
<g><path style="opacity:1" fill="#5b80cc" d="M 350.5,92.5 C 350.573,90.9731 349.906,89.9731 348.5,89.5C 348.585,88.0047 347.919,87.0047 346.5,86.5C 345.05,89.1414 344.383,88.8081 344.5,85.5C 344.64,83.9704 345.307,82.9704 346.5,82.5C 346.833,83.5 347.5,84.1667 348.5,84.5C 352.907,92.9785 354.574,92.3118 353.5,82.5C 354.189,81.2264 355.023,81.2264 356,82.5C 356.667,86.8333 356.667,91.1667 356,95.5C 353.609,96.0506 351.775,95.0506 350.5,92.5 Z"/></g>
<g><path style="opacity:0.106" fill="#dfe6ef" d="M 353.5,82.5 C 354.574,92.3118 352.907,92.9785 348.5,84.5C 349.482,85.1408 350.482,85.8075 351.5,86.5C 352.172,85.0508 352.839,83.7175 353.5,82.5 Z"/></g>
<g><path style="opacity:0.086" fill="#f2f3f4" d="M 60.5,92.5 C 62.7813,94.0322 62.7813,95.3656 60.5,96.5C 60.5,95.1667 60.5,93.8333 60.5,92.5 Z"/></g>
<g><path style="opacity:1" fill="#5384ba" d="M 41.5,95.5 C 42.5,95.5 43.5,95.5 44.5,95.5C 44.5,96.8333 44.5,98.1667 44.5,99.5C 44.5,99.8333 44.5,100.167 44.5,100.5C 44.3284,101.492 44.6618,102.158 45.5,102.5C 45.8333,103.167 46.1667,103.833 46.5,104.5C 46.7373,105.791 46.404,106.791 45.5,107.5C 44.2869,104.363 42.7869,101.363 41,98.5C 40.2599,97.2506 40.4265,96.2506 41.5,95.5 Z"/></g>
<g><path style="opacity:1" fill="#a8b9d0" d="M 67.5,96.5 C 67.5,96.8333 67.5,97.1667 67.5,97.5C 66.5,97.5 65.5,97.5 64.5,97.5C 64.5,98.5 64.5,99.5 64.5,100.5C 65.5,100.5 66.5,100.5 67.5,100.5C 63.6364,103.543 60.6364,102.876 58.5,98.5C 59.6522,99.625 60.6522,99.625 61.5,98.5C 63.1417,96.9192 65.1417,96.2525 67.5,96.5 Z"/></g>
<g><path style="opacity:1" fill="#5482c2" d="M 67.5,97.5 C 67.8333,97.5 68.1667,97.5 68.5,97.5C 68.4431,98.609 68.1098,99.609 67.5,100.5C 66.5,100.5 65.5,100.5 64.5,100.5C 64.5,99.5 64.5,98.5 64.5,97.5C 65.5,97.5 66.5,97.5 67.5,97.5 Z"/></g>
<g><path style="opacity:0.016" fill="#eff1f3" d="M 40.5,57.5 C 43.5,56.1667 46.5,56.1667 49.5,57.5C 49.0696,71.8923 49.5696,86.2257 51,100.5C 55.3957,107.131 61.2291,108.798 68.5,105.5C 68.5,106.167 68.8333,106.5 69.5,106.5C 68.7095,107.401 67.7095,108.068 66.5,108.5C 65.8333,107.167 65.1667,107.167 64.5,108.5C 63.5,108.5 62.5,108.5 61.5,108.5C 61.5,109.5 61.5,110.5 61.5,111.5C 60.596,110.791 60.2627,109.791 60.5,108.5C 58.7376,108.643 57.0709,108.309 55.5,107.5C 55.1667,107.833 54.8333,108.167 54.5,108.5C 58.374,110.002 58.0407,110.669 53.5,110.5C 53.5,109.833 53.1667,109.5 52.5,109.5C 52.1583,108.662 51.4916,108.328 50.5,108.5C 50.5,107.833 50.1667,107.5 49.5,107.5C 49.573,105.973 48.9063,104.973 47.5,104.5C 47.631,103.761 47.4643,103.094 47,102.5C 46.31,101.262 45.81,101.262 45.5,102.5C 44.6618,102.158 44.3284,101.492 44.5,100.5C 45.8333,100.167 45.8333,99.8333 44.5,99.5C 44.5,98.1667 44.5,96.8333 44.5,95.5C 44.8333,95.5 45.1667,95.5 45.5,95.5C 46.7131,98.6365 48.2131,101.637 50,104.5C 49.2457,100.112 48.4124,95.7785 47.5,91.5C 47.5,90.5 47.5,89.5 47.5,88.5C 48.8333,87.1667 48.8333,85.8333 47.5,84.5C 47.5,80.8333 47.5,77.1667 47.5,73.5C 48.8333,72.8333 48.8333,72.1667 47.5,71.5C 48.2341,70.2921 48.5674,68.9587 48.5,67.5C 47.5,67.5 46.5,67.5 45.5,67.5C 45.7058,65.4508 46.5391,65.1175 48,66.5C 48.4974,63.854 48.6641,61.1873 48.5,58.5C 46.8008,58.3398 45.1341,58.5065 43.5,59C 44.056,59.3826 44.3893,59.8826 44.5,60.5C 43.5,60.5 42.5,60.5 41.5,60.5C 41.7373,59.209 41.404,58.209 40.5,57.5 Z"/></g>
<g><path style="opacity:1" fill="#5a82b1" d="M 75.5,75.5 C 75.8333,75.5 76.1667,75.5 76.5,75.5C 76.8032,84.2511 76.4699,92.9177 75.5,101.5C 75.5,102.5 75.5,103.5 75.5,104.5C 73.8333,105.5 72.5,106.833 71.5,108.5C 70.8333,108.5 70.5,108.833 70.5,109.5C 70.1667,109.5 69.8333,109.5 69.5,109.5C 68.209,109.263 67.209,109.596 66.5,110.5C 66.5,111.167 66.1667,111.5 65.5,111.5C 64.1667,111.5 62.8333,111.5 61.5,111.5C 61.5,110.5 61.5,109.5 61.5,108.5C 62.5,108.5 63.5,108.5 64.5,108.5C 65.1667,108.5 65.8333,108.5 66.5,108.5C 67.7095,108.068 68.7095,107.401 69.5,106.5C 70.3382,106.158 70.6716,105.492 70.5,104.5C 71.1667,104.5 71.5,104.167 71.5,103.5C 71.8333,103.5 72.1667,103.5 72.5,103.5C 75.0355,99.6452 76.0355,95.3118 75.5,90.5C 75.5,85.5 75.5,80.5 75.5,75.5 Z"/></g>
<g><path style="opacity:1" fill="#6086a7" d="M 49.5,57.5 C 50.1667,57.5 50.8333,57.5 51.5,57.5C 51.5,65.5 51.5,73.5 51.5,81.5C 51.5,81.8333 51.5,82.1667 51.5,82.5C 51.5,83.1667 51.5,83.8333 51.5,84.5C 51.5,86.5 51.5,88.5 51.5,90.5C 51.1109,102.648 56.4442,106.814 67.5,103C 68.0659,102.005 68.7326,101.172 69.5,100.5C 70.1667,100.5 70.5,100.167 70.5,99.5C 71.1667,99.5 71.5,99.8333 71.5,100.5C 71.5,100.833 71.5,101.167 71.5,101.5C 71.5,102.167 71.5,102.833 71.5,103.5C 70.8333,103.5 70.5,103.833 70.5,104.5C 69.8333,104.833 69.1667,105.167 68.5,105.5C 61.2291,108.798 55.3957,107.131 51,100.5C 49.5696,86.2257 49.0696,71.8923 49.5,57.5 Z"/></g>
<g><path style="opacity:0.835" fill="#8da1bf" d="M 46.5,104.5 C 46.8333,104.5 47.1667,104.5 47.5,104.5C 47.427,106.027 48.0937,107.027 49.5,107.5C 50.1667,107.5 50.5,107.833 50.5,108.5C 50.8417,109.338 51.5084,109.672 52.5,109.5C 53.1667,109.5 53.5,109.833 53.5,110.5C 55.7791,111.651 58.1124,112.651 60.5,113.5C 59.209,113.263 58.209,113.596 57.5,114.5C 57.1667,114.5 56.8333,114.5 56.5,114.5C 51.6841,113.928 48.0174,111.595 45.5,107.5C 46.404,106.791 46.7373,105.791 46.5,104.5 Z"/></g>
<g><path style="opacity:0.835" fill="#8299bc" d="M 77.5,102.5 C 77.8333,102.5 78.1667,102.5 78.5,102.5C 78.8333,102.5 79.1667,102.5 79.5,102.5C 78.2337,108.024 74.9004,111.691 69.5,113.5C 69.5,112.833 69.5,112.167 69.5,111.5C 70.1667,111.5 70.5,111.167 70.5,110.5C 70.5,110.167 70.5,109.833 70.5,109.5C 71.1667,109.5 71.5,109.167 71.5,108.5C 73.8333,108.167 75.1667,106.833 75.5,104.5C 76.1667,103.833 76.8333,103.167 77.5,102.5 Z"/></g>
<g><path style="opacity:0.063" fill="#e2e7ec" d="M 66.5,110.5 C 67.209,109.596 68.209,109.263 69.5,109.5C 69.5,110.167 69.8333,110.5 70.5,110.5C 70.5,111.167 70.1667,111.5 69.5,111.5C 68.8333,111.833 68.1667,112.167 67.5,112.5C 67.6716,111.508 67.3382,110.842 66.5,110.5 Z"/></g>
<g><path style="opacity:0.306" fill="#c7cfdb" d="M 61.5,111.5 C 62.8333,111.5 64.1667,111.5 65.5,111.5C 65.5,111.833 65.5,112.167 65.5,112.5C 64.791,113.404 63.791,113.737 62.5,113.5C 62.1667,112.833 61.8333,112.167 61.5,111.5 Z"/></g>
<g><path style="opacity:1" fill="#5073a1" d="M 69.5,111.5 C 69.5,112.167 69.5,112.833 69.5,113.5C 68.791,114.404 67.791,114.737 66.5,114.5C 63.5,114.5 60.5,114.5 57.5,114.5C 58.209,113.596 59.209,113.263 60.5,113.5C 61.1667,113.5 61.8333,113.5 62.5,113.5C 63.791,113.737 64.791,113.404 65.5,112.5C 66.1667,112.5 66.8333,112.5 67.5,112.5C 68.1667,112.167 68.8333,111.833 69.5,111.5 Z"/></g>
<g><path style="opacity:0.015" fill="#fbfbfc" d="M 56.5,114.5 C 56.8333,114.5 57.1667,114.5 57.5,114.5C 60.5,114.5 63.5,114.5 66.5,114.5C 63.1667,117.167 59.8333,117.167 56.5,114.5 Z"/></g>
</svg>
