<?xml version="1.0" encoding="UTF-8"?>
<!DOCTYPE svg PUBLIC "-//W3C//DTD SVG 1.1//EN" "http://www.w3.org/Graphics/SVG/1.1/DTD/svg11.dtd">
<svg xmlns="http://www.w3.org/2000/svg" version="1.1" width="280px" height="111px" style="shape-rendering:geometricPrecision; text-rendering:geometricPrecision; image-rendering:optimizeQuality; fill-rule:evenodd; clip-rule:evenodd" xmlns:xlink="http://www.w3.org/1999/xlink">
<g><path style="opacity:0.031" fill="#f6f7f8" d="M 45.5,22.5 C 45.5,23.1667 45.5,23.8333 45.5,24.5C 45.5,25.8333 45.5,27.1667 45.5,28.5C 43.5,28.5 41.5,28.5 39.5,28.5C 39.369,27.7611 39.5357,27.0944 40,26.5C 41.0113,27.3366 42.1779,27.67 43.5,27.5C 43.0773,25.2188 43.744,23.5521 45.5,22.5 Z"/></g>
<g><path style="opacity:0.173" fill="#dee8e8" d="M 59.5,28.5 C 60.4916,28.3284 61.1583,28.6618 61.5,29.5C 57.8333,29.5 54.1667,29.5 50.5,29.5C 50.7852,27.712 50.4519,26.0453 49.5,24.5C 49.0798,26.326 49.0798,28.326 49.5,30.5C 49.44,31.0431 49.1067,31.3764 48.5,31.5C 47.5159,28.5719 47.1826,25.5719 47.5,22.5C 49.9653,21.556 51.632,22.556 52.5,25.5C 54.7301,26.7828 57.0634,27.7828 59.5,28.5 Z"/></g>
<g><path style="opacity:0.171" fill="#e5e9ea" d="M 39.5,28.5 C 41.5,28.5 43.5,28.5 45.5,28.5C 45.5,30.1667 45.5,31.8333 45.5,33.5C 44.8333,33.5 44.1667,33.5 43.5,33.5C 43.5,33.1667 43.5,32.8333 43.5,32.5C 43.5,32.1667 43.5,31.8333 43.5,31.5C 37.588,29.5437 31.2547,28.8771 24.5,29.5C 24.5,29.1667 24.5,28.8333 24.5,28.5C 28.2283,28.1564 31.8949,27.4898 35.5,26.5C 36.6223,27.6302 37.9557,28.2969 39.5,28.5 Z"/></g>
<g><path style="opacity:0.164" fill="#e9eced" d="M 59.5,28.5 C 65.8124,27.1474 72.1457,27.6474 78.5,30C 79.3805,30.7083 80.0472,31.5416 80.5,32.5C 79.8333,32.5 79.1667,32.5 78.5,32.5C 77.653,31.0337 76.3197,30.2004 74.5,30C 70.1794,29.501 65.8461,29.3343 61.5,29.5C 61.1583,28.6618 60.4916,28.3284 59.5,28.5 Z"/></g>
<g><path style="opacity:0.227" fill="#e0e5e6" d="M 24.5,28.5 C 24.5,28.8333 24.5,29.1667 24.5,29.5C 21.8527,29.9287 19.8527,31.2621 18.5,33.5C 17.5,34.1667 16.5,34.8333 15.5,35.5C 17.2741,31.0015 20.2741,28.6682 24.5,28.5 Z"/></g>
<g><path style="opacity:0.834" fill="#6f9d9f" d="M 61.5,29.5 C 65.8461,29.3343 70.1794,29.501 74.5,30C 76.3197,30.2004 77.653,31.0337 78.5,32.5C 76.2362,31.7814 73.9029,31.448 71.5,31.5C 64.3524,30.5084 57.0191,30.175 49.5,30.5C 49.0798,28.326 49.0798,26.326 49.5,24.5C 50.4519,26.0453 50.7852,27.712 50.5,29.5C 54.1667,29.5 57.8333,29.5 61.5,29.5 Z"/></g>
<g><path style="opacity:0.827" fill="#78a0a6" d="M 24.5,29.5 C 31.2547,28.8771 37.588,29.5437 43.5,31.5C 38.3554,30.3093 33.3554,30.3093 28.5,31.5C 27.8333,31.5 27.1667,31.5 26.5,31.5C 25.5,31.5 24.5,31.5 23.5,31.5C 23.1667,31.5 22.8333,31.5 22.5,31.5C 21.8333,31.5 21.5,31.8333 21.5,32.5C 20.8333,32.5 20.5,32.8333 20.5,33.5C 20.1667,33.5 19.8333,33.5 19.5,33.5C 19.1667,33.5 18.8333,33.5 18.5,33.5C 19.8527,31.2621 21.8527,29.9287 24.5,29.5 Z"/></g>
<g><path style="opacity:0.361" fill="#b3c6c7" d="M 43.5,31.5 C 43.5,31.8333 43.5,32.1667 43.5,32.5C 38.5,32.5 33.5,32.5 28.5,32.5C 28.5,32.1667 28.5,31.8333 28.5,31.5C 33.3554,30.3093 38.3554,30.3093 43.5,31.5 Z"/></g>
<g><path style="opacity:0.293" fill="#b3c5c6" d="M 47.5,22.5 C 47.1826,25.5719 47.5159,28.5719 48.5,31.5C 49.1067,31.3764 49.44,31.0431 49.5,30.5C 57.0191,30.175 64.3524,30.5084 71.5,31.5C 70.8333,31.5 70.5,31.8333 70.5,32.5C 62.5,32.5 54.5,32.5 46.5,32.5C 46.8064,29.6146 46.4731,26.9479 45.5,24.5C 45.5,23.8333 45.5,23.1667 45.5,22.5C 46.1667,21.1667 46.8333,21.1667 47.5,22.5 Z"/></g>
<g><path style="opacity:0.012" fill="#e6ebeb" d="M 22.5,31.5 C 22.8333,32.8333 23.1667,32.8333 23.5,31.5C 24.5,31.5 25.5,31.5 26.5,31.5C 26.7148,33.1788 26.0481,34.1788 24.5,34.5C 23.1667,35.1667 21.8333,35.8333 20.5,36.5C 20.5,36.1667 20.5,35.8333 20.5,35.5C 20.5,34.8333 20.5,34.1667 20.5,33.5C 21.1667,33.5 21.5,33.1667 21.5,32.5C 21.5,31.8333 21.8333,31.5 22.5,31.5 Z"/></g>
<g><path style="opacity:0.889" fill="#5d9ca1" d="M 45.5,24.5 C 46.4731,26.9479 46.8064,29.6146 46.5,32.5C 54.5,32.5 62.5,32.5 70.5,32.5C 72.4147,32.2155 74.0813,32.5489 75.5,33.5C 65.5,33.5 55.5,33.5 45.5,33.5C 45.5,31.8333 45.5,30.1667 45.5,28.5C 45.5,27.1667 45.5,25.8333 45.5,24.5 Z"/></g>
<g><path style="opacity:0.467" fill="#95babf" d="M 43.5,33.5 C 44.1667,33.5 44.8333,33.5 45.5,33.5C 55.5,33.5 65.5,33.5 75.5,33.5C 77.0269,33.427 78.0269,34.0937 78.5,35.5C 78.5,36.1667 78.5,36.8333 78.5,37.5C 77.3951,36.3995 76.0618,35.7329 74.5,35.5C 64.1667,34.8333 53.8333,34.1667 43.5,33.5 Z"/></g>
<g><path style="opacity:0.337" fill="#bed2d4" d="M 70.5,32.5 C 70.5,31.8333 70.8333,31.5 71.5,31.5C 73.9029,31.448 76.2362,31.7814 78.5,32.5C 79.1667,32.5 79.8333,32.5 80.5,32.5C 82.1733,33.343 83.34,34.6763 84,36.5C 84.2256,39.095 84.7256,41.595 85.5,44C 84.9558,44.7172 84.2891,45.2172 83.5,45.5C 83.8158,42.0217 83.3158,38.6883 82,35.5C 81.6667,36.5 81.3333,37.5 81,38.5C 80.6232,37.0577 79.7899,36.0577 78.5,35.5C 78.0269,34.0937 77.0269,33.427 75.5,33.5C 74.0813,32.5489 72.4147,32.2155 70.5,32.5 Z"/></g>
<g><path style="opacity:0.831" fill="#5aa9b2" d="M 26.5,31.5 C 27.1667,31.5 27.8333,31.5 28.5,31.5C 28.5,31.8333 28.5,32.1667 28.5,32.5C 29.9179,34.3079 31.9179,34.9746 34.5,34.5C 34.6309,35.3764 34.2975,36.0431 33.5,36.5C 30.5788,35.5934 27.5788,35.2601 24.5,35.5C 24.5,35.1667 24.5,34.8333 24.5,34.5C 26.0481,34.1788 26.7148,33.1788 26.5,31.5 Z"/></g>
<g><path style="opacity:0.837" fill="#65a4ab" d="M 28.5,32.5 C 33.5,32.5 38.5,32.5 43.5,32.5C 43.5,32.8333 43.5,33.1667 43.5,33.5C 53.8333,34.1667 64.1667,34.8333 74.5,35.5C 73.8333,35.5 73.1667,35.5 72.5,35.5C 62.5,35.5 52.5,35.5 42.5,35.5C 41.6661,34.2521 40.3328,33.5854 38.5,33.5C 36.9549,33.5108 35.6216,33.8442 34.5,34.5C 31.9179,34.9746 29.9179,34.3079 28.5,32.5 Z"/></g>
<g><path style="opacity:0.753" fill="#a7bfc3" d="M 18.5,33.5 C 18.8333,33.5 19.1667,33.5 19.5,33.5C 19.1667,34.1667 18.8333,34.8333 18.5,35.5C 17.8333,35.5 17.5,35.8333 17.5,36.5C 16.8333,36.5 16.5,36.8333 16.5,37.5C 16.5,38.1667 16.5,38.8333 16.5,39.5C 15.5489,40.9187 15.2155,42.5853 15.5,44.5C 15.6287,46.2161 15.962,47.8828 16.5,49.5C 14.9572,48.2642 13.9572,46.5976 13.5,44.5C 14.7728,42.0162 14.7728,39.5162 13.5,37C 13.9296,36.0346 14.5963,35.5346 15.5,35.5C 16.5,34.8333 17.5,34.1667 18.5,33.5 Z"/></g>
<g><path style="opacity:0.011" fill="#e6edee" d="M 18.5,35.5 C 19.1667,35.5 19.8333,35.5 20.5,35.5C 20.5,35.8333 20.5,36.1667 20.5,36.5C 20.4431,37.609 20.1098,38.609 19.5,39.5C 18.1667,39.8333 18.1667,40.1667 19.5,40.5C 19.5,42.1667 19.5,43.8333 19.5,45.5C 18.8386,44.2825 18.1719,42.9492 17.5,41.5C 16.8243,42.6016 16.1577,43.6016 15.5,44.5C 15.2155,42.5853 15.5489,40.9187 16.5,39.5C 17.8333,38.8333 17.8333,38.1667 16.5,37.5C 16.5,36.8333 16.8333,36.5 17.5,36.5C 18.1667,36.5 18.5,36.1667 18.5,35.5 Z"/></g>
<g><path style="opacity:0.061" fill="#f2f6f6" d="M 42.5,35.5 C 52.5,35.5 62.5,35.5 72.5,35.5C 72.5,35.8333 72.5,36.1667 72.5,36.5C 70.9519,36.8212 70.2852,37.8212 70.5,39.5C 70.1667,39.5 69.8333,39.5 69.5,39.5C 69.5,38.8333 69.5,38.1667 69.5,37.5C 59.9286,36.8585 50.9286,36.1919 42.5,35.5 Z"/></g>
<g><path style="opacity:0.839" fill="#76a0a8" d="M 72.5,36.5 C 72.5,36.1667 72.5,35.8333 72.5,35.5C 73.1667,35.5 73.8333,35.5 74.5,35.5C 76.0618,35.7329 77.3951,36.3995 78.5,37.5C 80.2869,41.1218 79.6202,44.1218 76.5,46.5C 77.4349,43.8872 77.6015,41.2205 77,38.5C 76.2917,37.6195 75.4584,36.9528 74.5,36.5C 73.8333,36.5 73.1667,36.5 72.5,36.5 Z"/></g>
<g><path style="opacity:0.148" fill="#e0e7e9" d="M 42.5,35.5 C 50.9286,36.1919 59.9286,36.8585 69.5,37.5C 60.8333,37.5 52.1667,37.5 43.5,37.5C 42.8333,37.5 42.5,37.8333 42.5,38.5C 41.8333,38.5 41.1667,38.5 40.5,38.5C 35.6946,37.5128 30.6946,37.1795 25.5,37.5C 25.5,36.8333 25.1667,36.5 24.5,36.5C 24.5,36.1667 24.5,35.8333 24.5,35.5C 27.5788,35.2601 30.5788,35.5934 33.5,36.5C 34.2975,36.0431 34.6309,35.3764 34.5,34.5C 35.6216,33.8442 36.9549,33.5108 38.5,33.5C 40.3328,33.5854 41.6661,34.2521 42.5,35.5 Z"/></g>
<g><path style="opacity:0.718" fill="#779ea7" d="M 25.5,37.5 C 30.6946,37.1795 35.6946,37.5128 40.5,38.5C 40.1667,38.5 39.8333,38.5 39.5,38.5C 34.9677,38.1818 30.6344,38.5151 26.5,39.5C 25.0014,40.6782 24.0014,42.3449 23.5,44.5C 22.8933,44.3764 22.56,44.0431 22.5,43.5C 22.461,40.911 23.461,38.911 25.5,37.5 Z"/></g>
<g><path style="opacity:0.753" fill="#7699a0" d="M 43.5,38.5 C 43.5,38.1667 43.5,37.8333 43.5,37.5C 52.1667,37.5 60.8333,37.5 69.5,37.5C 69.5,38.1667 69.5,38.8333 69.5,39.5C 68.8333,39.5 68.1667,39.5 67.5,39.5C 59.6841,38.5076 51.6841,38.1743 43.5,38.5 Z"/></g>
<g><path style="opacity:0.009" fill="#f4f5f6" d="M 74.5,36.5 C 75.4584,36.9528 76.2917,37.6195 77,38.5C 77.6015,41.2205 77.4349,43.8872 76.5,46.5C 75.5,46.5 74.5,46.5 73.5,46.5C 75.9994,44.3955 75.9994,42.3955 73.5,40.5C 72.7025,40.9569 72.3691,41.6236 72.5,42.5C 72.1583,43.3382 71.4916,43.6716 70.5,43.5C 70.5,42.1667 70.5,40.8333 70.5,39.5C 71.7498,39.4226 72.5831,38.756 73,37.5C 74.1068,38.7119 74.6068,38.3786 74.5,36.5 Z"/></g>
<g><path style="opacity:0.405" fill="#b2c0c2" d="M 43.5,39.5 C 43.5,39.1667 43.5,38.8333 43.5,38.5C 51.6841,38.1743 59.6841,38.5076 67.5,39.5C 67.1667,39.5 66.8333,39.5 66.5,39.5C 65.8333,39.5 65.5,39.8333 65.5,40.5C 64.8333,40.5 64.1667,40.5 63.5,40.5C 57.021,39.5093 50.3543,39.176 43.5,39.5 Z"/></g>
<g><path style="opacity:0.173" fill="#dce3e3" d="M 118.5,41.5 C 114.627,39.5698 110.294,38.9031 105.5,39.5C 106.261,38.6091 107.261,37.9424 108.5,37.5C 112.094,38.4259 115.76,38.7592 119.5,38.5C 119.737,39.791 119.404,40.791 118.5,41.5 Z"/></g>
<g><path style="opacity:0.188" fill="#dde9e9" d="M 150.5,46.5 C 150.5,46.8333 150.5,47.1667 150.5,47.5C 149.167,46.1667 147.833,44.8333 146.5,43.5C 145.833,42.5 145.167,41.5 144.5,40.5C 143.432,39.5655 142.099,39.2322 140.5,39.5C 141.635,37.9122 142.969,37.5788 144.5,38.5C 146.909,40.9024 148.909,43.5691 150.5,46.5 Z"/></g>
<g><path style="opacity:0.176" fill="#d7e5e5" d="M 196.5,40.5 C 194.414,38.9766 192.748,39.31 191.5,41.5C 191.167,41.5 190.833,41.5 190.5,41.5C 190.559,39.2776 191.725,38.2776 194,38.5C 195.376,38.6842 196.209,39.3509 196.5,40.5 Z"/></g>
<g><path style="opacity:0.196" fill="#e4eded" d="M 240.5,43.5 C 240.5,44.1667 240.5,44.8333 240.5,45.5C 239.167,46.8333 237.833,46.8333 236.5,45.5C 235.719,42.9281 234.219,40.9281 232,39.5C 230.97,39.8361 230.47,40.5028 230.5,41.5C 229.596,40.791 229.263,39.791 229.5,38.5C 230.822,38.67 231.989,38.3366 233,37.5C 234.833,39.8333 236.667,42.1667 238.5,44.5C 239.183,44.1373 239.85,43.8039 240.5,43.5 Z"/></g>
<g><path style="opacity:0.078" fill="#edf0f1" d="M 24.5,36.5 C 25.1667,36.5 25.5,36.8333 25.5,37.5C 23.461,38.911 22.461,40.911 22.5,43.5C 21.8333,43.5 21.1667,43.5 20.5,43.5C 20.0764,39.9983 21.4098,37.665 24.5,36.5 Z"/></g>
<g><path style="opacity:0.225" fill="#c3d0d3" d="M 39.5,38.5 C 39.5,41.5 39.5,44.5 39.5,47.5C 35.1667,47.5 30.8333,47.5 26.5,47.5C 26.5,47.1667 26.5,46.8333 26.5,46.5C 30.1817,46.6653 33.8484,46.4986 37.5,46C 38.4061,44.3005 38.7394,42.4672 38.5,40.5C 34.5,40.5 30.5,40.5 26.5,40.5C 26.5,40.1667 26.5,39.8333 26.5,39.5C 30.6344,38.5151 34.9677,38.1818 39.5,38.5 Z"/></g>
<g><path style="opacity:1" fill="#60d3d3" d="M 88.5,39.5 C 93.5,39.5 98.5,39.5 103.5,39.5C 103.5,40.5 103.5,41.5 103.5,42.5C 103.167,42.5 102.833,42.5 102.5,42.5C 100.833,42.5 99.1667,42.5 97.5,42.5C 98.6085,41.71 99.9419,41.21 101.5,41C 97.5,40.3333 93.5,40.3333 89.5,41C 91.3817,41.1981 93.0484,41.6981 94.5,42.5C 93.8333,42.5 93.1667,42.5 92.5,42.5C 88.5854,44.235 87.2521,43.235 88.5,39.5 Z"/></g>
<g><path style="opacity:0.776" fill="#6998a6" d="M 26.5,40.5 C 30.5,40.5 34.5,40.5 38.5,40.5C 38.7394,42.4672 38.4061,44.3005 37.5,46C 33.8484,46.4986 30.1817,46.6653 26.5,46.5C 26.5,45.8333 26.5,45.1667 26.5,44.5C 26.5,44.1667 26.5,43.8333 26.5,43.5C 26.5,42.5 26.5,41.5 26.5,40.5 Z"/></g>
<g><path style="opacity:0.8" fill="#5e98a2" d="M 46.5,41.5 C 46.5,41.1667 46.5,40.8333 46.5,40.5C 52.1667,40.5 57.8333,40.5 63.5,40.5C 64.1667,40.5 64.8333,40.5 65.5,40.5C 65.5,41.8333 64.8333,42.5 63.5,42.5C 58.0247,41.5111 52.358,41.1778 46.5,41.5 Z"/></g>
<g><path style="opacity:1" fill="#21f0eb" d="M 97.5,42.5 C 97.1384,47.4208 96.1384,52.0874 94.5,56.5C 94.5,51.8333 94.5,47.1667 94.5,42.5C 93.0484,41.6981 91.3817,41.1981 89.5,41C 93.5,40.3333 97.5,40.3333 101.5,41C 99.9419,41.21 98.6085,41.71 97.5,42.5 Z"/></g>
<g><path style="opacity:0.11" fill="#dee8e9" d="M 183.5,43.5 C 183.573,41.9731 182.906,40.9731 181.5,40.5C 178.592,39.4309 175.592,39.2642 172.5,40C 171.619,40.7083 170.953,41.5416 170.5,42.5C 169.272,43.3065 168.272,44.3065 167.5,45.5C 166.974,42.1922 168.307,40.0255 171.5,39C 175.9,38.0223 180.067,38.5223 184,40.5C 184.74,41.7494 184.573,42.7494 183.5,43.5 Z"/></g>
<g><path style="opacity:0.616" fill="#87a7aa" d="M 40.5,38.5 C 41.1667,38.5 41.8333,38.5 42.5,38.5C 42.5,41.8333 42.5,45.1667 42.5,48.5C 41.8333,48.5 41.1667,48.5 40.5,48.5C 40.5,45.1667 40.5,41.8333 40.5,38.5 Z"/></g>
<g><path style="opacity:0.058" fill="#eaeeee" d="M 88.5,39.5 C 94.0673,38.196 99.734,38.196 105.5,39.5C 105.5,45.1667 105.5,50.8333 105.5,56.5C 104.711,56.2172 104.044,55.7172 103.5,55C 104.822,50.7331 104.822,46.5664 103.5,42.5C 103.5,41.5 103.5,40.5 103.5,39.5C 98.5,39.5 93.5,39.5 88.5,39.5 Z"/></g>
<g><path style="opacity:0.809" fill="#50cfcf" d="M 105.5,39.5 C 110.294,38.9031 114.627,39.5698 118.5,41.5C 118.5,41.8333 118.5,42.1667 118.5,42.5C 115.167,42.5 111.833,42.5 108.5,42.5C 111.305,41.6805 114.305,41.1805 117.5,41C 113.848,40.5014 110.182,40.3347 106.5,40.5C 106.5,45.5 106.5,50.5 106.5,55.5C 110.298,56.4834 114.298,56.8168 118.5,56.5C 117.791,57.404 116.791,57.7373 115.5,57.5C 112.223,57.2161 109.057,57.5495 106,58.5C 105.536,57.9056 105.369,57.2389 105.5,56.5C 105.5,50.8333 105.5,45.1667 105.5,39.5 Z"/></g>
<g><path style="opacity:0.096" fill="#e9efef" d="M 153.5,57.5 C 154.5,57.5 155.5,57.5 156.5,57.5C 156.5,51.5 156.5,45.5 156.5,39.5C 155.5,39.5 154.5,39.5 153.5,39.5C 154.52,38.0462 155.687,37.7129 157,38.5C 157.5,45.1583 157.666,51.825 157.5,58.5C 155.901,58.7678 154.568,58.4345 153.5,57.5 Z"/></g>
<g><path style="opacity:0.992" fill="#4ae0db" d="M 181.5,40.5 C 179.143,42.0984 176.477,43.0984 173.5,43.5C 173.5,44.1667 173.167,44.5 172.5,44.5C 171.833,44.8333 171.167,45.1667 170.5,45.5C 170.5,44.5 170.5,43.5 170.5,42.5C 170.953,41.5416 171.619,40.7083 172.5,40C 175.592,39.2642 178.592,39.4309 181.5,40.5 Z"/></g>
<g><path style="opacity:1" fill="#38e1e0" d="M 208.5,39.5 C 208.5,44.5 208.5,49.5 208.5,54.5C 207.675,50.3528 207.175,46.0195 207,41.5C 206.501,46.4889 206.334,51.4889 206.5,56.5C 206.167,56.5 205.833,56.5 205.5,56.5C 205.334,51.1563 205.501,45.8229 206,40.5C 206.671,39.7476 207.504,39.4142 208.5,39.5 Z"/></g>
<g><path style="opacity:0.035" fill="#e5ecec" d="M 246.5,39.5 C 243.682,39.6574 241.682,40.9908 240.5,43.5C 240.793,39.1708 242.793,37.8374 246.5,39.5 Z"/></g>
<g><path style="opacity:0.081" fill="#d8e0e2" d="M 27.5,41.5 C 30.5,41.5 33.5,41.5 36.5,41.5C 36.5,42.5 36.5,43.5 36.5,44.5C 33.5,44.5 30.5,44.5 27.5,44.5C 27.5,43.5 27.5,42.5 27.5,41.5 Z"/></g>
<g><path style="opacity:0.027" fill="#f5f7f7" d="M 66.5,39.5 C 67.5,40.8333 68.5,42.1667 69.5,43.5C 62.4921,43.6663 55.4921,43.4996 48.5,43C 53.4889,42.5007 58.4889,42.3341 63.5,42.5C 64.8333,42.5 65.5,41.8333 65.5,40.5C 65.5,39.8333 65.8333,39.5 66.5,39.5 Z"/></g>
<g><path style="opacity:1" fill="#71dedd" d="M 136.5,41.5 C 134.295,43.3634 132.961,45.6967 132.5,48.5C 131.069,48.1193 130.236,47.1193 130,45.5C 129.329,46.2524 128.496,46.5858 127.5,46.5C 129.514,43.6534 132.014,41.3201 135,39.5C 136.03,39.8361 136.53,40.5028 136.5,41.5 Z"/></g>
<g><path style="opacity:0.922" fill="#9ddad7" d="M 181.5,40.5 C 182.906,40.9731 183.573,41.9731 183.5,43.5C 183.217,44.2891 182.717,44.9558 182,45.5C 179.435,43.8207 176.602,43.154 173.5,43.5C 176.477,43.0984 179.143,42.0984 181.5,40.5 Z"/></g>
<g><path style="opacity:0.925" fill="#6898a3" d="M 24.5,34.5 C 24.5,34.8333 24.5,35.1667 24.5,35.5C 24.5,35.8333 24.5,36.1667 24.5,36.5C 21.4098,37.665 20.0764,39.9983 20.5,43.5C 21.5,45.1667 22.8333,46.5 24.5,47.5C 24.5,47.8333 24.5,48.1667 24.5,48.5C 23.8333,48.5 23.1667,48.5 22.5,48.5C 21.8333,47.1667 20.8333,46.1667 19.5,45.5C 19.5,43.8333 19.5,42.1667 19.5,40.5C 19.5,40.1667 19.5,39.8333 19.5,39.5C 20.1098,38.609 20.4431,37.609 20.5,36.5C 21.8333,35.8333 23.1667,35.1667 24.5,34.5 Z"/></g>
<g><path style="opacity:0.125" fill="#d4dddf" d="M 46.5,41.5 C 52.358,41.1778 58.0247,41.5111 63.5,42.5C 58.4889,42.3341 53.4889,42.5007 48.5,43C 55.4921,43.4996 62.4921,43.6663 69.5,43.5C 69.8333,43.5 70.1667,43.5 70.5,43.5C 71.4916,43.6716 72.1583,43.3382 72.5,42.5C 73.0431,42.56 73.3764,42.8933 73.5,43.5C 64.5246,44.4982 55.5246,44.8315 46.5,44.5C 46.5,43.5 46.5,42.5 46.5,41.5 Z"/></g>
<g><path style="opacity:0.078" fill="#edf3f3" d="M 97.5,42.5 C 99.1667,42.5 100.833,42.5 102.5,42.5C 101.432,43.4345 100.099,43.7678 98.5,43.5C 98.8195,48.3633 98.4861,53.03 97.5,57.5C 97.5,52.5 97.5,47.5 97.5,42.5 Z"/></g>
<g><path style="opacity:1" fill="#2ce9e9" d="M 125.5,47.5 C 124.699,49.0418 124.366,50.7085 124.5,52.5C 124.715,54.1788 124.048,55.1788 122.5,55.5C 122.5,50.8333 122.5,46.1667 122.5,41.5C 122.821,39.9519 123.821,39.2852 125.5,39.5C 125.5,42.1667 125.5,44.8333 125.5,47.5 Z"/></g>
<g><path style="opacity:0.043" fill="#e2ebeb" d="M 136.5,41.5 C 136.53,40.5028 136.03,39.8361 135,39.5C 132.014,41.3201 129.514,43.6534 127.5,46.5C 126.833,46.8333 126.167,47.1667 125.5,47.5C 125.5,44.8333 125.5,42.1667 125.5,39.5C 123.821,39.2852 122.821,39.9519 122.5,41.5C 122.167,41.5 121.833,41.5 121.5,41.5C 121.5,40.5 121.5,39.5 121.5,38.5C 123.167,38.5 124.833,38.5 126.5,38.5C 126.338,40.5273 126.505,42.5273 127,44.5C 129.471,40.4961 132.971,38.4961 137.5,38.5C 137.737,39.791 137.404,40.791 136.5,41.5 Z"/></g>
<g><path style="opacity:0.996" fill="#5be6e1" d="M 196.5,40.5 C 196.878,42.921 197.545,45.2543 198.5,47.5C 197.075,45.9689 196.409,46.3023 196.5,48.5C 196.167,48.5 195.833,48.5 195.5,48.5C 195.123,46.1759 194.123,45.5092 192.5,46.5C 191.962,44.8828 191.629,43.2161 191.5,41.5C 192.748,39.31 194.414,38.9766 196.5,40.5 Z"/></g>
<g><path style="opacity:1" fill="#25ede9" d="M 208.5,54.5 C 210.833,54.5 213.167,54.5 215.5,54.5C 213.012,56.3878 210.012,57.0545 206.5,56.5C 206.334,51.4889 206.501,46.4889 207,41.5C 207.175,46.0195 207.675,50.3528 208.5,54.5 Z"/></g>
<g><path style="opacity:0.58" fill="#83a7b1" d="M 73.5,46.5 C 73.1667,46.5 72.8333,46.5 72.5,46.5C 63.8333,45.8333 55.1667,45.1667 46.5,44.5C 55.5246,44.8315 64.5246,44.4982 73.5,43.5C 73.3764,42.8933 73.0431,42.56 72.5,42.5C 72.3691,41.6236 72.7025,40.9569 73.5,40.5C 75.9994,42.3955 75.9994,44.3955 73.5,46.5 Z"/></g>
<g><path style="opacity:1" fill="#27eee9" d="M 108.5,42.5 C 108.5,43.8333 108.5,45.1667 108.5,46.5C 111.028,47.1657 113.694,47.8324 116.5,48.5C 113.694,49.1676 111.028,49.8343 108.5,50.5C 108.5,51.8333 108.5,53.1667 108.5,54.5C 108.158,55.3382 107.492,55.6716 106.5,55.5C 106.5,50.5 106.5,45.5 106.5,40.5C 110.182,40.3347 113.848,40.5014 117.5,41C 114.305,41.1805 111.305,41.6805 108.5,42.5 Z"/></g>
<g><path style="opacity:1" fill="#25efeb" d="M 144.5,40.5 C 145.167,41.5 145.833,42.5 146.5,43.5C 146.5,44.5 146.5,45.5 146.5,46.5C 145.85,46.1961 145.183,45.8627 144.5,45.5C 144.112,49.589 143.112,53.2557 141.5,56.5C 141.5,51.1667 141.5,45.8333 141.5,40.5C 142.5,40.5 143.5,40.5 144.5,40.5 Z"/></g>
<g><path style="opacity:0.137" fill="#e6f0f0" d="M 208.5,38.5 C 208.5,38.8333 208.5,39.1667 208.5,39.5C 207.504,39.4142 206.671,39.7476 206,40.5C 205.501,45.8229 205.334,51.1563 205.5,56.5C 205.5,56.8333 205.5,57.1667 205.5,57.5C 203.347,58.5729 201.347,58.5729 199.5,57.5C 200.5,57.5 201.5,57.5 202.5,57.5C 202.5,56.5 202.5,55.5 202.5,54.5C 202.5,54.1667 202.5,53.8333 202.5,53.5C 203.117,53.6107 203.617,53.944 204,54.5C 204.333,49.5 204.667,44.5 205,39.5C 206.011,38.6634 207.178,38.33 208.5,38.5 Z"/></g>
<g><path style="opacity:1" fill="#5fe4df" d="M 236.5,45.5 C 235.5,45.5 234.5,45.5 233.5,45.5C 232.026,44.5637 231.026,43.2303 230.5,41.5C 230.47,40.5028 230.97,39.8361 232,39.5C 234.219,40.9281 235.719,42.9281 236.5,45.5 Z"/></g>
<g><path style="opacity:0.11" fill="#e6ebec" d="M 26.5,39.5 C 26.5,39.8333 26.5,40.1667 26.5,40.5C 26.5,41.5 26.5,42.5 26.5,43.5C 25.1667,43.8333 25.1667,44.1667 26.5,44.5C 26.5,45.1667 26.5,45.8333 26.5,46.5C 26.5,46.8333 26.5,47.1667 26.5,47.5C 25.8333,47.5 25.1667,47.5 24.5,47.5C 22.8333,46.5 21.5,45.1667 20.5,43.5C 21.1667,43.5 21.8333,43.5 22.5,43.5C 22.56,44.0431 22.8933,44.3764 23.5,44.5C 24.0014,42.3449 25.0014,40.6782 26.5,39.5 Z"/></g>
<g><path style="opacity:0.831" fill="#578b9a" d="M 46.5,40.5 C 46.5,40.8333 46.5,41.1667 46.5,41.5C 46.5,42.5 46.5,43.5 46.5,44.5C 55.1667,45.1667 63.8333,45.8333 72.5,46.5C 66.8333,46.5 61.1667,46.5 55.5,46.5C 54.5,46.5 53.5,46.5 52.5,46.5C 50.1667,46.5 47.8333,46.5 45.5,46.5C 45.2053,44.2646 45.5386,42.2646 46.5,40.5 Z"/></g>
<g><path style="opacity:0.075" fill="#e7eded" d="M 108.5,42.5 C 111.833,42.5 115.167,42.5 118.5,42.5C 115.695,43.3195 112.695,43.8195 109.5,44C 110.563,45.1882 111.897,45.6882 113.5,45.5C 114.167,45.5 114.5,45.8333 114.5,46.5C 112.5,46.5 110.5,46.5 108.5,46.5C 108.5,45.1667 108.5,43.8333 108.5,42.5 Z"/></g>
<g><path style="opacity:0.384" fill="#b1c6cb" d="M 78.5,37.5 C 81.3528,41.9251 80.6862,45.9251 76.5,49.5C 75.5,49.5 74.5,49.5 73.5,49.5C 73.5,49.1667 73.5,48.8333 73.5,48.5C 68.9029,47.4861 62.9029,47.1528 55.5,47.5C 55.5,47.1667 55.5,46.8333 55.5,46.5C 61.1667,46.5 66.8333,46.5 72.5,46.5C 72.8333,46.5 73.1667,46.5 73.5,46.5C 74.5,46.5 75.5,46.5 76.5,46.5C 79.6202,44.1218 80.2869,41.1218 78.5,37.5 Z"/></g>
<g><path style="opacity:1" fill="#2bece9" d="M 153.5,40.5 C 154.812,42.7432 155.478,45.4098 155.5,48.5C 155.478,51.5902 154.812,54.2568 153.5,56.5C 152.717,54.9242 151.55,53.5908 150,52.5C 149.26,51.2506 149.427,50.2506 150.5,49.5C 151.458,49.9528 152.292,50.6195 153,51.5C 153.499,47.8484 153.665,44.1817 153.5,40.5 Z"/></g>
<g><path style="opacity:1" fill="#75e5e1" d="M 246.5,39.5 C 245.008,43.8178 243.008,47.8178 240.5,51.5C 240.5,49.5 240.5,47.5 240.5,45.5C 240.5,44.8333 240.5,44.1667 240.5,43.5C 241.682,40.9908 243.682,39.6574 246.5,39.5 Z"/></g>
<g><path style="opacity:0.757" fill="#668c96" d="M 39.5,38.5 C 39.8333,38.5 40.1667,38.5 40.5,38.5C 40.5,41.8333 40.5,45.1667 40.5,48.5C 35.1667,48.5 29.8333,48.5 24.5,48.5C 24.5,48.1667 24.5,47.8333 24.5,47.5C 25.1667,47.5 25.8333,47.5 26.5,47.5C 30.8333,47.5 35.1667,47.5 39.5,47.5C 39.5,44.5 39.5,41.5 39.5,38.5 Z"/></g>
<g><path style="opacity:0.122" fill="#d9e2e5" d="M 43.5,39.5 C 50.3543,39.176 57.021,39.5093 63.5,40.5C 57.8333,40.5 52.1667,40.5 46.5,40.5C 45.5386,42.2646 45.2053,44.2646 45.5,46.5C 47.8333,46.5 50.1667,46.5 52.5,46.5C 52.5,46.8333 52.5,47.1667 52.5,47.5C 50.8333,47.5 49.1667,47.5 47.5,47.5C 47.5,51.1667 47.5,54.8333 47.5,58.5C 47.2066,65.2554 47.5399,71.9221 48.5,78.5C 47.5084,78.3284 46.8417,78.6618 46.5,79.5C 45.5,79.1667 44.8333,78.5 44.5,77.5C 45.8333,77.1667 45.8333,76.8333 44.5,76.5C 44.5,75.8333 44.1667,75.5 43.5,75.5C 43.5,75.1667 43.5,74.8333 43.5,74.5C 43.8333,74.5 44.1667,74.5 44.5,74.5C 45.8333,74.5 46.5,73.8333 46.5,72.5C 46.6664,64.4931 46.4997,56.4931 46,48.5C 43.788,45.9976 42.9547,42.9976 43.5,39.5 Z"/></g>
<g><path style="opacity:0.122" fill="#ecf0f0" d="M 113.5,45.5 C 114.884,44.1991 116.384,44.1991 118,45.5C 118.495,47.4727 118.662,49.4727 118.5,51.5C 116.585,51.7845 114.919,51.4511 113.5,50.5C 114.833,50.5 116.167,50.5 117.5,50.5C 117.5,49.1667 117.5,47.8333 117.5,46.5C 116.5,46.5 115.5,46.5 114.5,46.5C 114.5,45.8333 114.167,45.5 113.5,45.5 Z"/></g>
<g><path style="opacity:0.149" fill="#e7eded" d="M 140.5,39.5 C 140.5,45.1667 140.5,50.8333 140.5,56.5C 138.554,50.9252 138.554,45.2585 140.5,39.5 Z"/></g>
<g><path style="opacity:0.82" fill="#4ecccb" d="M 140.5,39.5 C 142.099,39.2322 143.432,39.5655 144.5,40.5C 143.5,40.5 142.5,40.5 141.5,40.5C 141.5,45.8333 141.5,51.1667 141.5,56.5C 141.167,56.5 140.833,56.5 140.5,56.5C 140.5,50.8333 140.5,45.1667 140.5,39.5 Z"/></g>
<g><path style="opacity:0.067" fill="#e6f2f1" d="M 153.5,39.5 C 153.5,39.8333 153.5,40.1667 153.5,40.5C 153.665,44.1817 153.499,47.8484 153,51.5C 152.292,50.6195 151.458,49.9528 150.5,49.5C 150.5,48.8333 150.5,48.1667 150.5,47.5C 150.5,47.1667 150.5,46.8333 150.5,46.5C 151.117,46.6107 151.617,46.944 152,47.5C 152.183,44.6353 152.683,41.9686 153.5,39.5 Z"/></g>
<g><path style="opacity:0.116" fill="#e1eaea" d="M 208.5,38.5 C 209.486,42.97 209.819,47.6367 209.5,52.5C 211.833,53.1667 214.167,53.8333 216.5,54.5C 216.167,54.5 215.833,54.5 215.5,54.5C 213.167,54.5 210.833,54.5 208.5,54.5C 208.5,49.5 208.5,44.5 208.5,39.5C 208.5,39.1667 208.5,38.8333 208.5,38.5 Z"/></g>
<g><path style="opacity:0.494" fill="#8fd0d0" d="M 222.5,39.5 C 221.5,39.5 220.5,39.5 219.5,39.5C 219.5,44.8333 219.5,50.1667 219.5,55.5C 222.625,56.4794 225.958,56.8128 229.5,56.5C 229.5,56.8333 229.5,57.1667 229.5,57.5C 226.223,57.2161 223.057,57.5495 220,58.5C 219.283,57.9558 218.783,57.2891 218.5,56.5C 218.5,50.8333 218.5,45.1667 218.5,39.5C 219.833,38.1667 221.167,38.1667 222.5,39.5 Z"/></g>
<g><path style="opacity:0.894" fill="#8caeb9" d="M 19.5,45.5 C 20.8333,46.1667 21.8333,47.1667 22.5,48.5C 20.2651,49.2481 20.5984,50.0814 23.5,51C 26.4816,51.498 29.4816,51.6646 32.5,51.5C 32.5,52.5 32.5,53.5 32.5,54.5C 32.1667,54.5 31.8333,54.5 31.5,54.5C 28.5701,53.701 25.5701,53.3677 22.5,53.5C 19.8021,53.1551 17.8021,51.8218 16.5,49.5C 15.962,47.8828 15.6287,46.2161 15.5,44.5C 16.1577,43.6016 16.8243,42.6016 17.5,41.5C 18.1719,42.9492 18.8386,44.2825 19.5,45.5 Z"/></g>
<g><path style="opacity:0.345" fill="#b3c2c5" d="M 22.5,48.5 C 23.1667,48.5 23.8333,48.5 24.5,48.5C 29.8333,48.5 35.1667,48.5 40.5,48.5C 39.4324,49.4345 38.099,49.7678 36.5,49.5C 35.8333,49.5 35.1667,49.5 34.5,49.5C 31.2869,49.19 28.2869,49.5233 25.5,50.5C 24.2905,50.0679 23.2905,49.4013 22.5,48.5 Z"/></g>
<g><path style="opacity:0.427" fill="#b3c0c4" d="M 56.5,49.5 C 61.9753,48.5111 67.642,48.1778 73.5,48.5C 73.5,48.8333 73.5,49.1667 73.5,49.5C 69.03,50.4861 64.3633,50.8195 59.5,50.5C 58.791,49.596 57.791,49.2627 56.5,49.5 Z"/></g>
<g><path style="opacity:0.8" fill="#84a7b2" d="M 78.5,35.5 C 79.7899,36.0577 80.6232,37.0577 81,38.5C 81.3333,37.5 81.6667,36.5 82,35.5C 83.3158,38.6883 83.8158,42.0217 83.5,45.5C 83.2503,47.674 82.2503,49.3406 80.5,50.5C 79.7784,50.0825 79.2784,49.4158 79,48.5C 78.3292,49.2524 77.4959,49.5858 76.5,49.5C 80.6862,45.9251 81.3528,41.9251 78.5,37.5C 78.5,36.8333 78.5,36.1667 78.5,35.5 Z"/></g>
<g><path style="opacity:0.176" fill="#ddeaeb" d="M 196.5,40.5 C 199.29,44.4156 201.29,48.749 202.5,53.5C 202.5,53.8333 202.5,54.1667 202.5,54.5C 201.167,52.1667 199.833,49.8333 198.5,47.5C 197.545,45.2543 196.878,42.921 196.5,40.5 Z"/></g>
<g><path style="opacity:0.371" fill="#96cecd" d="M 108.5,46.5 C 110.5,46.5 112.5,46.5 114.5,46.5C 115.5,46.5 116.5,46.5 117.5,46.5C 117.5,47.8333 117.5,49.1667 117.5,50.5C 116.167,50.5 114.833,50.5 113.5,50.5C 112.833,50.5 112.167,50.5 111.5,50.5C 110.5,50.5 109.5,50.5 108.5,50.5C 111.028,49.8343 113.694,49.1676 116.5,48.5C 113.694,47.8324 111.028,47.1657 108.5,46.5 Z"/></g>
<g><path style="opacity:1" fill="#6ce6e6" d="M 127.5,46.5 C 127.586,47.4959 127.252,48.3292 126.5,49C 127.793,49.49 129.127,49.6567 130.5,49.5C 130.629,51.2161 130.962,52.8828 131.5,54.5C 130.288,53.7701 129.288,52.7701 128.5,51.5C 127.817,51.8627 127.15,52.1961 126.5,52.5C 125.833,52.5 125.167,52.5 124.5,52.5C 124.366,50.7085 124.699,49.0418 125.5,47.5C 126.167,47.1667 126.833,46.8333 127.5,46.5 Z"/></g>
<g><path style="opacity:1" fill="#69e1e0" d="M 146.5,43.5 C 147.833,44.8333 149.167,46.1667 150.5,47.5C 150.5,48.1667 150.5,48.8333 150.5,49.5C 149.427,50.2506 149.26,51.2506 150,52.5C 151.55,53.5908 152.717,54.9242 153.5,56.5C 153.5,56.8333 153.5,57.1667 153.5,57.5C 150.107,55.4275 147.774,52.4275 146.5,48.5C 146.5,47.8333 146.5,47.1667 146.5,46.5C 146.5,45.5 146.5,44.5 146.5,43.5 Z"/></g>
<g><path style="opacity:0.46" fill="#c5e3e2" d="M 164.5,45.5 C 164.5,43.5 164.5,41.5 164.5,39.5C 163.5,39.5 162.5,39.5 161.5,39.5C 161.5,45.1667 161.5,50.8333 161.5,56.5C 162.5,56.5 163.5,56.5 164.5,56.5C 163.304,58.9815 161.804,58.9815 160,56.5C 159.833,54 159.667,51.5 159.5,49C 159.309,45.2914 159.975,41.7914 161.5,38.5C 162.72,37.2889 163.887,37.2889 165,38.5C 165.796,41.0385 165.629,43.3718 164.5,45.5 Z"/></g>
<g><path style="opacity:1" fill="#3ae6e1" d="M 233.5,46.5 C 233.5,46.1667 233.5,45.8333 233.5,45.5C 234.5,45.5 235.5,45.5 236.5,45.5C 237.833,46.8333 239.167,46.8333 240.5,45.5C 240.5,47.5 240.5,49.5 240.5,51.5C 239.549,52.9187 239.216,54.5853 239.5,56.5C 238.5,56.5 237.5,56.5 236.5,56.5C 236.663,54.1432 236.497,51.8098 236,49.5C 235.623,48.0577 234.79,47.0577 233.5,46.5 Z"/></g>
<g><path style="opacity:0.902" fill="#598da4" d="M 22.5,48.5 C 23.2905,49.4013 24.2905,50.0679 25.5,50.5C 28.1667,50.5 30.8333,50.5 33.5,50.5C 33.5,51.5 33.5,52.5 33.5,53.5C 33.5,54.8333 33.5,56.1667 33.5,57.5C 33.7373,58.791 33.404,59.791 32.5,60.5C 32.1667,60.5 31.8333,60.5 31.5,60.5C 31.8333,59.1667 32.1667,57.8333 32.5,56.5C 32.5,55.8333 32.5,55.1667 32.5,54.5C 32.5,53.5 32.5,52.5 32.5,51.5C 29.4816,51.6646 26.4816,51.498 23.5,51C 20.5984,50.0814 20.2651,49.2481 22.5,48.5 Z"/></g>
<g><path style="opacity:1" fill="#4d7e93" d="M 52.5,47.5 C 52.5,53.1667 52.5,58.8333 52.5,64.5C 52.4013,67.2372 52.7347,69.9039 53.5,72.5C 52.8333,72.5 52.1667,72.5 51.5,72.5C 51.4203,64.71 51.4203,56.71 51.5,48.5C 50.5,48.5 49.5,48.5 48.5,48.5C 48.5,51.8333 48.5,55.1667 48.5,58.5C 48.1667,58.5 47.8333,58.5 47.5,58.5C 47.5,54.8333 47.5,51.1667 47.5,47.5C 49.1667,47.5 50.8333,47.5 52.5,47.5 Z"/></g>
<g><path style="opacity:0.906" fill="#598ba0" d="M 73.5,49.5 C 74.5,49.5 75.5,49.5 76.5,49.5C 76.0825,50.2216 75.4158,50.7216 74.5,51C 70.5138,51.4988 66.5138,51.6655 62.5,51.5C 62.0276,53.5313 61.0276,55.1979 59.5,56.5C 59.5,54.5 59.5,52.5 59.5,50.5C 64.3633,50.8195 69.03,50.4861 73.5,49.5 Z"/></g>
<g><path style="opacity:1" fill="#55e7e7" d="M 170.5,42.5 C 170.5,43.5 170.5,44.5 170.5,45.5C 169.875,49.9273 171.541,52.9273 175.5,54.5C 175.611,55.1174 175.944,55.6174 176.5,56C 174.866,56.4935 173.199,56.6602 171.5,56.5C 169.589,56.4257 168.422,55.4257 168,53.5C 166.665,50.7763 166.498,48.1096 167.5,45.5C 168.272,44.3065 169.272,43.3065 170.5,42.5 Z"/></g>
<g><path style="opacity:1" fill="#41e6e4" d="M 190.5,41.5 C 190.833,41.5 191.167,41.5 191.5,41.5C 191.629,43.2161 191.962,44.8828 192.5,46.5C 189.699,48.727 190.032,50.0604 193.5,50.5C 195.03,50.3601 196.03,49.6935 196.5,48.5C 196.409,46.3023 197.075,45.9689 198.5,47.5C 199.291,49.6907 199.291,51.6907 198.5,53.5C 196.5,53.5 194.5,53.5 192.5,53.5C 190.596,53.7376 189.262,54.7376 188.5,56.5C 187.5,56.5 186.5,56.5 185.5,56.5C 186.887,51.3957 188.554,46.3957 190.5,41.5 Z"/></g>
<g><path style="opacity:0.224" fill="#d2e5e5" d="M 192.5,46.5 C 192.821,48.0481 193.821,48.7148 195.5,48.5C 195.833,48.5 196.167,48.5 196.5,48.5C 196.03,49.6935 195.03,50.3601 193.5,50.5C 190.032,50.0604 189.699,48.727 192.5,46.5 Z"/></g>
<g><path style="opacity:1" fill="#36e4df" d="M 222.5,39.5 C 222.5,42.5 222.5,45.5 222.5,48.5C 222.5,50.5 222.5,52.5 222.5,54.5C 221.391,54.5569 220.391,54.8902 219.5,55.5C 219.5,50.1667 219.5,44.8333 219.5,39.5C 220.5,39.5 221.5,39.5 222.5,39.5 Z"/></g>
<g><path style="opacity:0.49" fill="#89aab5" d="M 80.5,50.5 C 79.3406,52.2503 77.674,53.2503 75.5,53.5C 71.6286,53.185 67.9619,53.5184 64.5,54.5C 62.9519,54.1788 62.2852,53.1788 62.5,51.5C 66.5138,51.6655 70.5138,51.4988 74.5,51C 75.4158,50.7216 76.0825,50.2216 76.5,49.5C 77.4959,49.5858 78.3292,49.2524 79,48.5C 79.2784,49.4158 79.7784,50.0825 80.5,50.5 Z"/></g>
<g><path style="opacity:0.271" fill="#d1e0df" d="M 121.5,41.5 C 121.833,41.5 122.167,41.5 122.5,41.5C 122.5,46.1667 122.5,50.8333 122.5,55.5C 122.5,56.1667 122.5,56.8333 122.5,57.5C 121.468,55.5662 120.802,53.3995 120.5,51C 121.256,47.8752 121.589,44.7086 121.5,41.5 Z"/></g>
<g><path style="opacity:1" fill="#5fe5e2" d="M 164.5,45.5 C 165.498,49.3276 165.498,52.9943 164.5,56.5C 163.5,56.5 162.5,56.5 161.5,56.5C 161.5,50.8333 161.5,45.1667 161.5,39.5C 162.5,39.5 163.5,39.5 164.5,39.5C 164.5,41.5 164.5,43.5 164.5,45.5 Z"/></g>
<g><path style="opacity:0.145" fill="#d9e9e9" d="M 190.5,41.5 C 188.554,46.3957 186.887,51.3957 185.5,56.5C 186.5,56.5 187.5,56.5 188.5,56.5C 186.641,59.0186 184.641,59.0186 182.5,56.5C 183.976,54.7704 183.642,53.4371 181.5,52.5C 179.827,54.0863 177.827,54.7529 175.5,54.5C 171.541,52.9273 169.875,49.9273 170.5,45.5C 171.167,45.1667 171.833,44.8333 172.5,44.5C 171.304,52.6602 174.471,54.6602 182,50.5C 182.689,51.3567 183.522,52.0233 184.5,52.5C 186.257,48.6483 188.257,44.9816 190.5,41.5 Z"/></g>
<g><path style="opacity:0.141" fill="#dce3e6" d="M 35.5,52.5 C 37.2646,51.5386 39.2646,51.2053 41.5,51.5C 41.5,53.5 41.5,55.5 41.5,57.5C 40.8333,57.5 40.1667,57.5 39.5,57.5C 39.1667,57.5 38.8333,57.5 38.5,57.5C 38.33,56.1779 38.6634,55.0113 39.5,54C 38.552,53.5172 37.552,53.3505 36.5,53.5C 36.5,52.8333 36.1667,52.5 35.5,52.5 Z"/></g>
<g><path style="opacity:0.178" fill="#d9e6e7" d="M 92.5,42.5 C 93.1667,42.5 93.8333,42.5 94.5,42.5C 94.5,47.1667 94.5,51.8333 94.5,56.5C 94.5,56.8333 94.5,57.1667 94.5,57.5C 93.5222,57.189 92.8555,56.5223 92.5,55.5C 93.828,51.1364 93.828,46.8031 92.5,42.5 Z"/></g>
<g><path style="opacity:1" fill="#4dcfcd" d="M 97.5,42.5 C 97.5,47.5 97.5,52.5 97.5,57.5C 96.5,57.5 95.5,57.5 94.5,57.5C 94.5,57.1667 94.5,56.8333 94.5,56.5C 96.1384,52.0874 97.1384,47.4208 97.5,42.5 Z"/></g>
<g><path style="opacity:0.012" fill="#fcfcfc" d="M 100.5,52.5 C 101.573,53.2506 101.74,54.2506 101,55.5C 100.517,54.552 100.351,53.552 100.5,52.5 Z"/></g>
<g><path style="opacity:0.016" fill="#e9efef" d="M 108.5,50.5 C 109.5,50.5 110.5,50.5 111.5,50.5C 111.082,51.2216 110.416,51.7216 109.5,52C 112.817,52.4983 116.15,52.665 119.5,52.5C 119.5,54.5 119.5,56.5 119.5,58.5C 117.901,58.7678 116.568,58.4345 115.5,57.5C 116.791,57.7373 117.791,57.404 118.5,56.5C 115.663,54.5977 112.329,53.931 108.5,54.5C 108.5,53.1667 108.5,51.8333 108.5,50.5 Z"/></g>
<g><path style="opacity:0.431" fill="#9bd4d3" d="M 146.5,46.5 C 146.5,47.1667 146.5,47.8333 146.5,48.5C 145.883,48.3893 145.383,48.056 145,47.5C 144.502,50.8168 144.335,54.1501 144.5,57.5C 143.178,57.33 142.011,57.6634 141,58.5C 140.536,57.9056 140.369,57.2389 140.5,56.5C 140.833,56.5 141.167,56.5 141.5,56.5C 143.112,53.2557 144.112,49.589 144.5,45.5C 145.183,45.8627 145.85,46.1961 146.5,46.5 Z"/></g>
<g><path style="opacity:0.059" fill="#f2f4f4" d="M 218.5,39.5 C 218.5,45.1667 218.5,50.8333 218.5,56.5C 217.833,56.8333 217.167,57.1667 216.5,57.5C 216.5,56.5 216.5,55.5 216.5,54.5C 214.167,53.8333 211.833,53.1667 209.5,52.5C 212.841,53.1571 214.841,51.8237 215.5,48.5C 216.086,48.7093 216.586,49.0426 217,49.5C 217.179,45.9748 217.679,42.6414 218.5,39.5 Z"/></g>
<g><path style="opacity:0.017" fill="#f8f8f9" d="M 22.5,53.5 C 25.5701,53.3677 28.5701,53.701 31.5,54.5C 31.3284,55.4916 31.6618,56.1583 32.5,56.5C 32.1667,57.8333 31.8333,59.1667 31.5,60.5C 30.8386,59.2825 30.1719,57.9492 29.5,56.5C 26.7617,56.1125 24.4283,55.1125 22.5,53.5 Z"/></g>
<g><path style="opacity:0.663" fill="#6692a3" d="M 43.5,37.5 C 43.5,37.8333 43.5,38.1667 43.5,38.5C 43.5,38.8333 43.5,39.1667 43.5,39.5C 42.9547,42.9976 43.788,45.9976 46,48.5C 46.4997,56.4931 46.6664,64.4931 46.5,72.5C 45.8333,64.8333 45.1667,57.1667 44.5,49.5C 44.1583,48.6618 43.4916,48.3284 42.5,48.5C 42.5,45.1667 42.5,41.8333 42.5,38.5C 42.5,37.8333 42.8333,37.5 43.5,37.5 Z"/></g>
<g><path style="opacity:0.169" fill="#dfe2e3" d="M 52.5,46.5 C 53.5,46.5 54.5,46.5 55.5,46.5C 55.5,46.8333 55.5,47.1667 55.5,47.5C 55.5,47.8333 55.5,48.1667 55.5,48.5C 54.5386,50.2646 54.2053,52.2646 54.5,54.5C 53.8333,57.8333 53.1667,61.1667 52.5,64.5C 52.5,58.8333 52.5,53.1667 52.5,47.5C 52.5,47.1667 52.5,46.8333 52.5,46.5 Z"/></g>
<g><path style="opacity:1" fill="#33e9e8" d="M 132.5,48.5 C 133.609,50.5544 134.609,52.7211 135.5,55C 135.167,55.5 134.833,56 134.5,56.5C 133.482,55.8075 132.482,55.1408 131.5,54.5C 130.962,52.8828 130.629,51.2161 130.5,49.5C 129.127,49.6567 127.793,49.49 126.5,49C 127.252,48.3292 127.586,47.4959 127.5,46.5C 128.496,46.5858 129.329,46.2524 130,45.5C 130.236,47.1193 131.069,48.1193 132.5,48.5 Z"/></g>
<g><path style="opacity:1" fill="#39d6d5" d="M 153.5,40.5 C 153.5,40.1667 153.5,39.8333 153.5,39.5C 154.5,39.5 155.5,39.5 156.5,39.5C 156.5,45.5 156.5,51.5 156.5,57.5C 155.5,57.5 154.5,57.5 153.5,57.5C 153.5,57.1667 153.5,56.8333 153.5,56.5C 154.812,54.2568 155.478,51.5902 155.5,48.5C 155.478,45.4098 154.812,42.7432 153.5,40.5 Z"/></g>
<g><path style="opacity:0.047" fill="#f0f6f6" d="M 192.5,53.5 C 194.5,53.5 196.5,53.5 198.5,53.5C 198.5,54.1667 198.5,54.8333 198.5,55.5C 196.374,54.9518 194.374,54.2852 192.5,53.5 Z"/></g>
<g><path style="opacity:1" fill="#4ddfde" d="M 198.5,47.5 C 199.833,49.8333 201.167,52.1667 202.5,54.5C 202.5,55.5 202.5,56.5 202.5,57.5C 201.5,57.5 200.5,57.5 199.5,57.5C 199.167,56.8333 198.833,56.1667 198.5,55.5C 198.5,54.8333 198.5,54.1667 198.5,53.5C 199.291,51.6907 199.291,49.6907 198.5,47.5 Z"/></g>
<g><path style="opacity:0.145" fill="#e2ebeb" d="M 222.5,48.5 C 223.163,50.0419 223.83,51.7086 224.5,53.5C 226.702,52.2203 228.868,52.2203 231,53.5C 231.773,55.3524 231.273,56.6857 229.5,57.5C 229.5,57.1667 229.5,56.8333 229.5,56.5C 227.721,54.6565 225.388,53.9898 222.5,54.5C 222.5,52.5 222.5,50.5 222.5,48.5 Z"/></g>
<g><path style="opacity:0.125" fill="#cbe4e4" d="M 233.5,46.5 C 234.79,47.0577 235.623,48.0577 236,49.5C 236.497,51.8098 236.663,54.1432 236.5,56.5C 237.5,56.5 238.5,56.5 239.5,56.5C 239.216,54.5853 239.549,52.9187 240.5,51.5C 240.5,53.5 240.5,55.5 240.5,57.5C 235.235,58.9462 233.569,56.9462 235.5,51.5C 234.544,49.9246 233.877,48.258 233.5,46.5 Z"/></g>
<g><path style="opacity:1" fill="#35708e" d="M 44.5,49.5 C 45.1667,57.1667 45.8333,64.8333 46.5,72.5C 46.5,73.8333 45.8333,74.5 44.5,74.5C 44.5,66.1667 44.5,57.8333 44.5,49.5 Z"/></g>
<g><path style="opacity:0.041" fill="#f4f5f6" d="M 62.5,51.5 C 62.2852,53.1788 62.9519,54.1788 64.5,54.5C 66.5648,54.5172 68.5648,54.8505 70.5,55.5C 69.5977,57.3407 68.2644,58.674 66.5,59.5C 66.5,58.1667 65.8333,57.5 64.5,57.5C 61.9588,57.8514 60.2921,57.5181 59.5,56.5C 61.0276,55.1979 62.0276,53.5313 62.5,51.5 Z"/></g>
<g><path style="opacity:0.067" fill="#f0f3f3" d="M 64.5,54.5 C 67.9619,53.5184 71.6286,53.185 75.5,53.5C 74.3646,55.2132 72.698,55.8799 70.5,55.5C 68.5648,54.8505 66.5648,54.5172 64.5,54.5 Z"/></g>
<g><path style="opacity:1" fill="#65dbda" d="M 182.5,56.5 C 178.744,59.1134 175.077,59.1134 171.5,56.5C 173.199,56.6602 174.866,56.4935 176.5,56C 175.944,55.6174 175.611,55.1174 175.5,54.5C 177.827,54.7529 179.827,54.0863 181.5,52.5C 183.642,53.4371 183.976,54.7704 182.5,56.5 Z"/></g>
<g><path style="opacity:1" fill="#32e3df" d="M 108.5,54.5 C 112.329,53.931 115.663,54.5977 118.5,56.5C 114.298,56.8168 110.298,56.4834 106.5,55.5C 107.492,55.6716 108.158,55.3382 108.5,54.5 Z"/></g>
<g><path style="opacity:0.996" fill="#9bdede" d="M 124.5,52.5 C 125.167,52.5 125.833,52.5 126.5,52.5C 126.66,54.1992 126.494,55.8659 126,57.5C 124.708,58.7911 123.542,58.7911 122.5,57.5C 122.5,56.8333 122.5,56.1667 122.5,55.5C 124.048,55.1788 124.715,54.1788 124.5,52.5 Z"/></g>
<g><path style="opacity:1" fill="#33e6e5" d="M 222.5,54.5 C 225.388,53.9898 227.721,54.6565 229.5,56.5C 225.958,56.8128 222.625,56.4794 219.5,55.5C 220.391,54.8902 221.391,54.5569 222.5,54.5 Z"/></g>
<g><path style="opacity:1" fill="#4a6e85" d="M 42.5,50.5 C 43.4924,58.3159 43.8257,66.3159 43.5,74.5C 43.5,74.8333 43.5,75.1667 43.5,75.5C 44.1667,75.5 44.5,75.8333 44.5,76.5C 44.5,76.8333 44.5,77.1667 44.5,77.5C 44.8333,78.5 45.5,79.1667 46.5,79.5C 48.2646,80.4614 50.2646,80.7947 52.5,80.5C 51.0813,81.4511 49.4147,81.7845 47.5,81.5C 46.8333,81.5 46.1667,81.5 45.5,81.5C 43.7497,80.3406 42.7497,78.674 42.5,76.5C 42.5,72.8333 42.5,69.1667 42.5,65.5C 42.5,60.5 42.5,55.5 42.5,50.5 Z"/></g>
<g><path style="opacity:0.843" fill="#bce2df" d="M 132.5,48.5 C 136.226,50.7904 137.893,53.9571 137.5,58C 134.128,59.1215 132.128,57.9549 131.5,54.5C 132.482,55.1408 133.482,55.8075 134.5,56.5C 134.833,56 135.167,55.5 135.5,55C 134.609,52.7211 133.609,50.5544 132.5,48.5 Z"/></g>
<g><path style="opacity:0.827" fill="#8ad2d2" d="M 215.5,54.5 C 215.833,54.5 216.167,54.5 216.5,54.5C 216.5,55.5 216.5,56.5 216.5,57.5C 212.883,57.7467 209.217,57.7467 205.5,57.5C 205.5,57.1667 205.5,56.8333 205.5,56.5C 205.833,56.5 206.167,56.5 206.5,56.5C 210.012,57.0545 213.012,56.3878 215.5,54.5 Z"/></g>
<g><path style="opacity:0.114" fill="#e4e9ea" d="M 25.5,50.5 C 28.2869,49.5233 31.2869,49.19 34.5,49.5C 34.2627,50.791 34.596,51.791 35.5,52.5C 36.1667,52.5 36.5,52.8333 36.5,53.5C 37.3924,58.4376 37.7257,63.4376 37.5,68.5C 36.209,68.7373 35.209,68.404 34.5,67.5C 35.4731,65.0521 35.8064,62.3854 35.5,59.5C 35.6716,58.5084 35.3382,57.8417 34.5,57.5C 34.7678,55.901 34.4345,54.5676 33.5,53.5C 33.5,52.5 33.5,51.5 33.5,50.5C 30.8333,50.5 28.1667,50.5 25.5,50.5 Z"/></g>
<g><path style="opacity:0.243" fill="#dce0e3" d="M 56.5,50.5 C 56.5,50.1667 56.5,49.8333 56.5,49.5C 57.791,49.2627 58.791,49.596 59.5,50.5C 59.5,52.5 59.5,54.5 59.5,56.5C 60.2921,57.5181 61.9588,57.8514 64.5,57.5C 62.3926,58.4682 60.0593,58.8016 57.5,58.5C 57.1667,58.5 56.8333,58.5 56.5,58.5C 56.5,56.5 56.5,54.5 56.5,52.5C 57.8333,51.8333 57.8333,51.1667 56.5,50.5 Z"/></g>
<g><path style="opacity:0.294" fill="#c1cdd4" d="M 40.5,48.5 C 41.1667,48.5 41.8333,48.5 42.5,48.5C 43.4916,48.3284 44.1583,48.6618 44.5,49.5C 44.5,57.8333 44.5,66.1667 44.5,74.5C 44.1667,74.5 43.8333,74.5 43.5,74.5C 43.8257,66.3159 43.4924,58.3159 42.5,50.5C 40.2646,50.7947 38.2646,50.4614 36.5,49.5C 38.099,49.7678 39.4324,49.4345 40.5,48.5 Z"/></g>
<g><path style="opacity:1" fill="#47748f" d="M 55.5,47.5 C 62.9029,47.1528 68.9029,47.4861 73.5,48.5C 67.642,48.1778 61.9753,48.5111 56.5,49.5C 56.5,49.8333 56.5,50.1667 56.5,50.5C 56.5,51.1667 56.5,51.8333 56.5,52.5C 56.5,54.5 56.5,56.5 56.5,58.5C 56.8229,64.69 56.4896,70.69 55.5,76.5C 55.5,67.1667 55.5,57.8333 55.5,48.5C 55.5,48.1667 55.5,47.8333 55.5,47.5 Z"/></g>
<g><path style="opacity:0.557" fill="#7f9fae" d="M 34.5,49.5 C 35.1667,49.5 35.8333,49.5 36.5,49.5C 38.2646,50.4614 40.2646,50.7947 42.5,50.5C 42.5,55.5 42.5,60.5 42.5,65.5C 41.8333,65.5 41.1667,65.5 40.5,65.5C 40.4013,62.7628 40.7347,60.0961 41.5,57.5C 41.5,55.5 41.5,53.5 41.5,51.5C 39.2646,51.2053 37.2646,51.5386 35.5,52.5C 34.596,51.791 34.2627,50.791 34.5,49.5 Z"/></g>
<g><path style="opacity:1" fill="#4e819d" d="M 64.5,57.5 C 65.8333,57.5 66.5,58.1667 66.5,59.5C 66.5,59.8333 66.5,60.1667 66.5,60.5C 64.2362,59.7814 61.9029,59.448 59.5,59.5C 58.5269,61.9479 58.1936,64.6146 58.5,67.5C 58.1667,67.5 57.8333,67.5 57.5,67.5C 57.5,64.5 57.5,61.5 57.5,58.5C 60.0593,58.8016 62.3926,58.4682 64.5,57.5 Z"/></g>
<g><path style="opacity:0.193" fill="#d8dcde" d="M 54.5,54.5 C 54.5,61.1667 54.5,67.8333 54.5,74.5C 53.6618,74.1583 53.3284,73.4916 53.5,72.5C 52.7347,69.9039 52.4013,67.2372 52.5,64.5C 53.1667,61.1667 53.8333,57.8333 54.5,54.5 Z"/></g>
<g><path style="opacity:0.077" fill="#eef0f1" d="M 33.5,57.5 C 33.8333,57.5 34.1667,57.5 34.5,57.5C 34.3284,58.4916 34.6618,59.1583 35.5,59.5C 35.8064,62.3854 35.4731,65.0521 34.5,67.5C 33.1667,67.5 32.5,68.1667 32.5,69.5C 31.7093,67.6907 31.7093,65.6907 32.5,63.5C 32.5,62.5 32.5,61.5 32.5,60.5C 33.404,59.791 33.7373,58.791 33.5,57.5 Z"/></g>
<g><path style="opacity:0.041" fill="#eff2f3" d="M 59.5,59.5 C 61.9029,59.448 64.2362,59.7814 66.5,60.5C 65.791,61.404 64.791,61.7373 63.5,61.5C 63.0691,65.3366 62.4025,69.0032 61.5,72.5C 61.5,68.8333 61.5,65.1667 61.5,61.5C 60.8333,60.8333 60.1667,60.1667 59.5,59.5 Z"/></g>
<g><path style="opacity:0.067" fill="#dce1e8" d="M 174.5,73.5 C 173.833,73.1667 173.167,72.8333 172.5,72.5C 173.341,70.6208 173.675,68.6208 173.5,66.5C 171.5,66.5 169.5,66.5 167.5,66.5C 167.5,69.1667 167.5,71.8333 167.5,74.5C 166.521,71.3752 166.187,68.0419 166.5,64.5C 171.798,63.2199 174.632,65.2199 175,70.5C 176.557,69.7948 177.723,70.4615 178.5,72.5C 177.645,73.293 176.811,72.9597 176,71.5C 175.283,72.0442 174.783,72.7109 174.5,73.5 Z"/></g>
<g><path style="opacity:0.007" fill="#e1e5ea" d="M 198.5,66.5 C 198.5,67.5 198.5,68.5 198.5,69.5C 197.883,69.6107 197.383,69.944 197,70.5C 196.502,68.4556 195.335,67.1223 193.5,66.5C 193.369,65.6236 193.702,64.9569 194.5,64.5C 195.425,65.6405 196.259,65.6405 197,64.5C 197.278,65.4158 197.778,66.0825 198.5,66.5 Z"/></g>
<g><path style="opacity:0.007" fill="#d0d9e4" d="M 128.5,72.5 C 129.496,72.4142 130.329,72.7476 131,73.5C 131.667,71.1667 131.667,68.8333 131,66.5C 130.908,72.6652 129.741,72.9985 127.5,67.5C 126.609,66.8902 125.609,66.5569 124.5,66.5C 124.5,66.1667 124.5,65.8333 124.5,65.5C 126.667,65.542 129,65.2086 131.5,64.5C 132.487,67.7683 132.82,71.1016 132.5,74.5C 130.62,74.7709 129.287,74.1042 128.5,72.5 Z"/></g>
<g><path style="opacity:1" fill="#3f6c89" d="M 39.5,57.5 C 40.1667,57.5 40.8333,57.5 41.5,57.5C 40.7347,60.0961 40.4013,62.7628 40.5,65.5C 40.5,67.8333 40.5,70.1667 40.5,72.5C 39.8333,72.5 39.5,72.1667 39.5,71.5C 39.5,66.8333 39.5,62.1667 39.5,57.5 Z"/></g>
<g><path style="opacity:0.259" fill="#d3d9df" d="M 187.5,66.5 C 184.014,65.8285 181.347,66.8285 179.5,69.5C 179.137,67.0885 180.137,65.5885 182.5,65C 184.535,64.4014 186.201,64.9014 187.5,66.5 Z"/></g>
<g><path style="opacity:0.027" fill="#d9dfe6" d="M 218.5,74.5 C 218.664,71.8127 218.497,69.146 218,66.5C 217.751,67.624 217.251,68.624 216.5,69.5C 215.06,68.0476 213.394,67.0476 211.5,66.5C 211.369,65.6236 211.702,64.9569 212.5,64.5C 213.814,65.3128 214.981,66.3128 216,67.5C 216.368,66.09 217.201,65.09 218.5,64.5C 219.806,67.9798 219.806,71.3132 218.5,74.5 Z"/></g>
<g><path style="opacity:1" fill="#496f8f" d="M 47.5,58.5 C 47.8333,58.5 48.1667,58.5 48.5,58.5C 48.5,61.5 48.5,64.5 48.5,67.5C 48.5,67.8333 48.5,68.1667 48.5,68.5C 48.5,69.8333 48.5,71.1667 48.5,72.5C 48.5,73.1667 48.5,73.8333 48.5,74.5C 48.9522,77.6741 49.9522,78.0075 51.5,75.5C 52.3081,75.8076 52.9747,76.3076 53.5,77C 52.0953,78.2692 50.4286,78.7692 48.5,78.5C 47.5399,71.9221 47.2066,65.2554 47.5,58.5 Z"/></g>
<g><path style="opacity:1" fill="#2e6ab3" d="M 124.5,66.5 C 125.609,66.5569 126.609,66.8902 127.5,67.5C 129.741,72.9985 130.908,72.6652 131,66.5C 131.667,68.8333 131.667,71.1667 131,73.5C 130.329,72.7476 129.496,72.4142 128.5,72.5C 126.747,68.8176 125.413,69.1509 124.5,73.5C 124.5,72.5 124.5,71.5 124.5,70.5C 124.5,69.1667 124.5,67.8333 124.5,66.5 Z"/></g>
<g><path style="opacity:0.11" fill="#dce0e6" d="M 160.5,66.5 C 158.5,66.5 156.5,66.5 154.5,66.5C 154.5,69.1667 154.5,71.8333 154.5,74.5C 153.362,71.6965 153.195,68.6965 154,65.5C 156.552,63.9797 158.718,64.3131 160.5,66.5 Z"/></g>
<g><path style="opacity:0.004" fill="#dde3eb" d="M 203.5,67.5 C 202.947,71.4557 202.114,71.4557 201,67.5C 200.329,66.7476 199.496,66.4142 198.5,66.5C 198.369,65.6236 198.702,64.9569 199.5,64.5C 200.852,65.5244 202.185,66.5244 203.5,67.5 Z"/></g>
<g><path style="opacity:0.015" fill="#f7f7f8" d="M 32.5,63.5 C 31.7093,65.6907 31.7093,67.6907 32.5,69.5C 32.5,70.1667 32.5,70.8333 32.5,71.5C 31.1667,71.5 30.5,72.1667 30.5,73.5C 29.5222,73.189 28.8555,72.5223 28.5,71.5C 29.8366,68.7608 31.17,66.0942 32.5,63.5 Z"/></g>
<g><path style="opacity:0.841" fill="#4e7d99" d="M 36.5,53.5 C 37.552,53.3505 38.552,53.5172 39.5,54C 38.6634,55.0113 38.33,56.1779 38.5,57.5C 38.5,61.5 38.5,65.5 38.5,69.5C 36.5,69.5 34.5,69.5 32.5,69.5C 32.5,68.1667 33.1667,67.5 34.5,67.5C 35.209,68.404 36.209,68.7373 37.5,68.5C 37.7257,63.4376 37.3924,58.4376 36.5,53.5 Z"/></g>
<g><path style="opacity:0.125" fill="#e8ebec" d="M 51.5,72.5 C 50.8333,72.5 50.1667,72.5 49.5,72.5C 49.1667,72.5 48.8333,72.5 48.5,72.5C 48.5,71.1667 48.5,69.8333 48.5,68.5C 49.8333,68.1667 49.8333,67.8333 48.5,67.5C 48.5,64.5 48.5,61.5 48.5,58.5C 48.5,55.1667 48.5,51.8333 48.5,48.5C 49.5,48.5 50.5,48.5 51.5,48.5C 51.4203,56.71 51.4203,64.71 51.5,72.5 Z"/></g>
<g><path style="opacity:0.686" fill="#7893a9" d="M 55.5,48.5 C 55.5,57.8333 55.5,67.1667 55.5,76.5C 55.5,77.5 55.5,78.5 55.5,79.5C 53.6203,81.4347 51.6203,83.1014 49.5,84.5C 49.5,85.1667 49.1667,85.5 48.5,85.5C 48.5674,84.0413 48.2341,82.7079 47.5,81.5C 49.4147,81.7845 51.0813,81.4511 52.5,80.5C 54.0808,78.8583 54.7475,76.8583 54.5,74.5C 54.5,67.8333 54.5,61.1667 54.5,54.5C 54.2053,52.2646 54.5386,50.2646 55.5,48.5 Z"/></g>
<g><path style="opacity:0.047" fill="#f9f9f9" d="M 124.5,65.5 C 124.5,65.8333 124.5,66.1667 124.5,66.5C 124.5,67.8333 124.5,69.1667 124.5,70.5C 123.732,71.2625 123.232,72.2625 123,73.5C 122.667,73.1667 122.333,72.8333 122,72.5C 121.692,73.3081 121.192,73.9747 120.5,74.5C 119.167,71.8333 119.167,69.1667 120.5,66.5C 121.192,67.0253 121.692,67.6919 122,68.5C 122.377,67.0577 123.21,66.0577 124.5,65.5 Z"/></g>
<g><path style="opacity:0.009" fill="#fdfdfd" d="M 133.5,68.5 C 134.573,69.2506 134.74,70.2506 134,71.5C 133.517,70.552 133.351,69.552 133.5,68.5 Z"/></g>
<g><path style="opacity:0.145" fill="#dbdfe6" d="M 160.5,66.5 C 161.38,68.1368 162.046,69.9701 162.5,72C 162.361,73.301 161.695,74.1344 160.5,74.5C 160.5,71.8333 160.5,69.1667 160.5,66.5 Z"/></g>
<g><path style="opacity:1" fill="#6789b6" d="M 187.5,66.5 C 188.167,66.5 188.5,66.8333 188.5,67.5C 188.5,69.1667 188.5,70.8333 188.5,72.5C 185.895,76.2848 183.062,76.2848 180,72.5C 179.517,71.552 179.351,70.552 179.5,69.5C 181.347,66.8285 184.014,65.8285 187.5,66.5 Z M 185.5,68.5 C 186.338,68.8417 186.672,69.5084 186.5,70.5C 185.292,71.2341 183.959,71.5674 182.5,71.5C 182.5,69.5 183.5,68.5 185.5,68.5 Z"/></g>
<g><path style="opacity:1" fill="#577bb2" d="M 198.5,66.5 C 199.496,66.4142 200.329,66.7476 201,67.5C 202.114,71.4557 202.947,71.4557 203.5,67.5C 204.65,66.1498 205.317,66.3164 205.5,68C 205.011,69.1385 204.678,70.3052 204.5,71.5C 202.761,76.6224 201.427,76.6224 200.5,71.5C 200.5,70.1667 199.833,69.5 198.5,69.5C 198.5,68.5 198.5,67.5 198.5,66.5 Z"/></g>
<g><path style="opacity:0.11" fill="#e4e7ea" d="M 204.5,71.5 C 204.678,70.3052 205.011,69.1385 205.5,68C 205.317,66.3164 204.65,66.1498 203.5,67.5C 204.977,63.4191 206.311,63.5858 207.5,68C 207.293,69.9497 206.293,71.1164 204.5,71.5 Z"/></g>
<g><path style="opacity:0.005" fill="#fdfefe" d="M 211.5,68.5 C 211.5,69.1667 211.5,69.8333 211.5,70.5C 209.067,69.4523 209.067,68.7856 211.5,68.5 Z"/></g>
<g><path style="opacity:0.988" fill="#4976b2" d="M 211.5,66.5 C 213.394,67.0476 215.06,68.0476 216.5,69.5C 217.251,68.624 217.751,67.624 218,66.5C 218.497,69.146 218.664,71.8127 218.5,74.5C 216.57,74.2294 215.236,73.2294 214.5,71.5C 214.631,70.6236 214.298,69.9569 213.5,69.5C 212.828,70.9492 212.161,72.2825 211.5,73.5C 211.5,72.5 211.5,71.5 211.5,70.5C 211.5,69.8333 211.5,69.1667 211.5,68.5C 211.5,67.8333 211.5,67.1667 211.5,66.5 Z"/></g>
<g><path style="opacity:0.624" fill="#8599a9" d="M 40.5,65.5 C 41.1667,65.5 41.8333,65.5 42.5,65.5C 42.5,69.1667 42.5,72.8333 42.5,76.5C 41.8333,75.1667 41.1667,73.8333 40.5,72.5C 40.5,70.1667 40.5,67.8333 40.5,65.5 Z"/></g>
<g><path style="opacity:1" fill="#557087" d="M 61.5,61.5 C 61.5,65.1667 61.5,68.8333 61.5,72.5C 61.5,73.5 61.5,74.5 61.5,75.5C 60.8698,77.7496 59.8698,79.7496 58.5,81.5C 58.5,80.5 58.5,79.5 58.5,78.5C 58.8543,72.594 59.8543,66.9273 61.5,61.5 Z"/></g>
<g><path style="opacity:0.988" fill="#3c6ead" d="M 160.5,66.5 C 160.5,69.1667 160.5,71.8333 160.5,74.5C 158.5,74.5 156.5,74.5 154.5,74.5C 154.5,71.8333 154.5,69.1667 154.5,66.5C 156.5,66.5 158.5,66.5 160.5,66.5 Z"/></g>
<g><path style="opacity:0.349" fill="#a9c2db" d="M 155.5,67.5 C 156.675,67.281 157.675,67.6143 158.5,68.5C 156.948,69.7979 155.948,69.4646 155.5,67.5 Z"/></g>
<g><path style="opacity:0.231" fill="#e1e5ea" d="M 188.5,67.5 C 189.234,68.8775 189.901,70.3775 190.5,72C 189.906,72.4643 189.239,72.631 188.5,72.5C 188.5,70.8333 188.5,69.1667 188.5,67.5 Z"/></g>
<g><path style="opacity:0.227" fill="#cbd5dc" d="M 38.5,57.5 C 38.8333,57.5 39.1667,57.5 39.5,57.5C 39.5,62.1667 39.5,66.8333 39.5,71.5C 37.1667,71.5 34.8333,71.5 32.5,71.5C 32.5,70.8333 32.5,70.1667 32.5,69.5C 34.5,69.5 36.5,69.5 38.5,69.5C 38.5,65.5 38.5,61.5 38.5,57.5 Z"/></g>
<g><path style="opacity:0.643" fill="#91accd" d="M 128.5,72.5 C 127.265,72.7214 126.265,73.3881 125.5,74.5C 124.893,74.3764 124.56,74.0431 124.5,73.5C 125.413,69.1509 126.747,68.8176 128.5,72.5 Z"/></g>
<g><path style="opacity:1" fill="#849bc7" d="M 138.5,64.5 C 139.777,65.6936 140.444,67.3603 140.5,69.5C 140.167,71.1667 139.833,72.8333 139.5,74.5C 138.585,73.6721 137.919,72.6721 137.5,71.5C 137.277,69.2618 137.61,66.9285 138.5,64.5 Z"/></g>
<g><path style="opacity:0.945" fill="#396bab" d="M 172.5,72.5 C 170.517,72.1568 169.183,72.8235 168.5,74.5C 168.167,74.5 167.833,74.5 167.5,74.5C 167.5,71.8333 167.5,69.1667 167.5,66.5C 169.5,66.5 171.5,66.5 173.5,66.5C 173.675,68.6208 173.341,70.6208 172.5,72.5 Z"/></g>
<g><path style="opacity:0.337" fill="#c8d1dd" d="M 168.5,67.5 C 169.833,67.5 171.167,67.5 172.5,67.5C 172.5,68.5 172.5,69.5 172.5,70.5C 171.167,70.5 169.833,70.5 168.5,70.5C 168.5,69.5 168.5,68.5 168.5,67.5 Z"/></g>
<g><path style="opacity:0.157" fill="#e1e8f0" d="M 185.5,68.5 C 183.5,68.5 182.5,69.5 182.5,71.5C 181.427,70.7494 181.26,69.7494 182,68.5C 183.292,67.2089 184.458,67.2089 185.5,68.5 Z"/></g>
<g><path style="opacity:1" fill="#708cb4" d="M 193.5,66.5 C 195.335,67.1223 196.502,68.4556 197,70.5C 197.383,69.944 197.883,69.6107 198.5,69.5C 199.833,69.5 200.5,70.1667 200.5,71.5C 199.341,72.4558 198.174,73.4558 197,74.5C 194.78,72.3531 193.613,69.6864 193.5,66.5 Z"/></g>
<g><path style="opacity:0.616" fill="#95a8be" d="M 214.5,71.5 C 214.025,73.7221 213.025,74.3888 211.5,73.5C 212.161,72.2825 212.828,70.9492 213.5,69.5C 214.298,69.9569 214.631,70.6236 214.5,71.5 Z"/></g>
<g><path style="opacity:0.822" fill="#698295" d="M 32.5,71.5 C 34.8333,71.5 37.1667,71.5 39.5,71.5C 39.5,72.1667 39.8333,72.5 40.5,72.5C 37.7131,73.4767 34.7131,73.81 31.5,73.5C 31.1667,73.5 30.8333,73.5 30.5,73.5C 30.5,72.1667 31.1667,71.5 32.5,71.5 Z"/></g>
<g><path style="opacity:0.086" fill="#c1ccdd" d="M 116.5,63.5 C 117.117,63.6107 117.617,63.944 118,64.5C 118.498,67.8168 118.665,71.1501 118.5,74.5C 117.5,74.5 116.5,74.5 115.5,74.5C 115.244,70.7307 115.577,67.0641 116.5,63.5 Z"/></g>
<g><path style="opacity:0.059" fill="#ebedef" d="M 186.5,70.5 C 186.38,71.5862 185.713,72.2528 184.5,72.5C 183.584,72.4573 182.917,72.1239 182.5,71.5C 183.959,71.5674 185.292,71.2341 186.5,70.5 Z"/></g>
<g><path style="opacity:0.043" fill="#e3e6e9" d="M 49.5,72.5 C 50.1667,72.5 50.8333,72.5 51.5,72.5C 52.1667,72.5 52.8333,72.5 53.5,72.5C 53.3284,73.4916 53.6618,74.1583 54.5,74.5C 54.7475,76.8583 54.0808,78.8583 52.5,80.5C 50.2646,80.7947 48.2646,80.4614 46.5,79.5C 47.4916,79.6716 48.1583,79.3382 48.5,78.5C 50.4286,78.7692 52.0953,78.2692 53.5,77C 52.9747,76.3076 52.3081,75.8076 51.5,75.5C 49.9522,78.0075 48.9522,77.6741 48.5,74.5C 49.3382,74.1583 49.6716,73.4916 49.5,72.5 Z"/></g>
<g><path style="opacity:0.388" fill="#a0b9d6" d="M 155.5,70.5 C 160.833,71.5 160.833,72.5 155.5,73.5C 155.5,72.5 155.5,71.5 155.5,70.5 Z"/></g>
<g><path style="opacity:0.482" fill="#90a9bc" d="M 56.5,58.5 C 56.8333,58.5 57.1667,58.5 57.5,58.5C 57.5,61.5 57.5,64.5 57.5,67.5C 57.665,70.8499 57.4983,74.1832 57,77.5C 56.7216,78.4158 56.2216,79.0825 55.5,79.5C 55.5,78.5 55.5,77.5 55.5,76.5C 56.4896,70.69 56.8229,64.69 56.5,58.5 Z"/></g>
<g><path style="opacity:0.827" fill="#8b9ab3" d="M 172.5,72.5 C 173.167,72.8333 173.833,73.1667 174.5,73.5C 172.575,73.8901 170.575,74.2235 168.5,74.5C 169.183,72.8235 170.517,72.1568 172.5,72.5 Z"/></g>
<g><path style="opacity:0.655" fill="#8098aa" d="M 59.5,59.5 C 60.1667,60.1667 60.8333,60.8333 61.5,61.5C 59.8543,66.9273 58.8543,72.594 58.5,78.5C 58.5,74.8333 58.5,71.1667 58.5,67.5C 58.1936,64.6146 58.5269,61.9479 59.5,59.5 Z"/></g>
<g><path style="opacity:0.118" fill="#eaecee" d="M 40.5,72.5 C 41.1667,73.8333 41.8333,75.1667 42.5,76.5C 42.7497,78.674 43.7497,80.3406 45.5,81.5C 44.8333,81.5 44.1667,81.5 43.5,81.5C 43.1667,81.5 42.8333,81.5 42.5,81.5C 42.1667,80.1667 41.8333,80.1667 41.5,81.5C 40.0937,81.0269 39.427,80.0269 39.5,78.5C 40.8333,77.8333 40.8333,77.1667 39.5,76.5C 39.189,75.5222 38.5223,74.8555 37.5,74.5C 36.7084,75.6998 36.7084,77.0331 37.5,78.5C 35.443,76.8316 33.443,75.1649 31.5,73.5C 34.7131,73.81 37.7131,73.4767 40.5,72.5 Z"/></g>
<g><path style="opacity:0.675" fill="#899bb1" d="M 39.5,76.5 C 39.5,77.1667 39.5,77.8333 39.5,78.5C 39.427,80.0269 40.0937,81.0269 41.5,81.5C 41.8333,81.5 42.1667,81.5 42.5,81.5C 42.5,81.8333 42.5,82.1667 42.5,82.5C 43.3065,83.7281 44.3065,84.7281 45.5,85.5C 45.5,85.8333 45.5,86.1667 45.5,86.5C 45.1667,86.5 44.8333,86.5 44.5,86.5C 40.7601,85.0917 38.4267,82.425 37.5,78.5C 36.7084,77.0331 36.7084,75.6998 37.5,74.5C 38.5223,74.8555 39.189,75.5222 39.5,76.5 Z"/></g>
<g><path style="opacity:0.918" fill="#3f6692" d="M 57.5,67.5 C 57.8333,67.5 58.1667,67.5 58.5,67.5C 58.5,71.1667 58.5,74.8333 58.5,78.5C 56.5977,82.057 53.5977,84.057 49.5,84.5C 51.6203,83.1014 53.6203,81.4347 55.5,79.5C 56.2216,79.0825 56.7216,78.4158 57,77.5C 57.4983,74.1832 57.665,70.8499 57.5,67.5 Z"/></g>
<g><path style="opacity:0.022" fill="#e9eaed" d="M 43.5,81.5 C 44.1667,81.5 44.8333,81.5 45.5,81.5C 46.1667,81.5 46.8333,81.5 47.5,81.5C 48.2341,82.7079 48.5674,84.0413 48.5,85.5C 47.5,85.5 46.5,85.5 45.5,85.5C 44.3065,84.7281 43.3065,83.7281 42.5,82.5C 43.1667,82.5 43.5,82.1667 43.5,81.5 Z"/></g>
<g><path style="opacity:0.843" fill="#68819f" d="M 58.5,78.5 C 58.5,79.5 58.5,80.5 58.5,81.5C 57.1394,83.5273 55.4727,85.194 53.5,86.5C 52.8333,86.5 52.1667,86.5 51.5,86.5C 49.5,86.5 47.5,86.5 45.5,86.5C 45.5,86.1667 45.5,85.8333 45.5,85.5C 46.5,85.5 47.5,85.5 48.5,85.5C 49.1667,85.5 49.5,85.1667 49.5,84.5C 53.5977,84.057 56.5977,82.057 58.5,78.5 Z"/></g>
<g><path style="opacity:0.031" fill="#eff0f2" d="M 61.5,75.5 C 62.3758,81.0554 60.0425,85.0554 54.5,87.5C 53.8933,87.3764 53.56,87.0431 53.5,86.5C 55.4727,85.194 57.1394,83.5273 58.5,81.5C 59.8698,79.7496 60.8698,77.7496 61.5,75.5 Z"/></g>
<g><path style="opacity:0.067" fill="#f6f7f7" d="M 44.5,86.5 C 44.8333,86.5 45.1667,86.5 45.5,86.5C 47.5,86.5 49.5,86.5 51.5,86.5C 49.2496,89.0341 46.9163,89.0341 44.5,86.5 Z"/></g>
</svg>
